{
	"asset":{
		"generator":"Khronos glTF Blender I/O v3.5.30",
		"version":"2.0"
	},
	"scene":0,
	"scenes":[
		{
			"name":"Scene",
			"nodes":[
				8
			]
		}
	],
	"nodes":[
		{
			"mesh":0,
			"name":"button",
			"scale":[
				0.7830184698104858,
				0.7830183506011963,
				0.7830183506011963
			],
			"translation":[
				0,
				-3.5395100894675124e-06,
				0
			]
		},
		{
			"mesh":1,
			"name":"expresso"
		},
		{
			"mesh":2,
			"name":"lamp",
			"translation":[
				0,
				-3.539509407346486e-06,
				0
			]
		},
		{
			"mesh":3,
			"name":"led",
			"rotation":[
				0,
				-0.7071068286895752,
				0.7071068286895752,
				9.895539960780297e-07
			],
			"scale":[
				30.924514770507812,
				30.924509048461914,
				30.924509048461914
			],
			"translation":[
				0,
				-3.539509407346486e-06,
				0
			]
		},
		{
			"mesh":4,
			"name":"mugs",
			"rotation":[
				0,
				-1,
				0,
				1.3860876606486272e-06
			],
			"scale":[
				3.702312469482422,
				3.7023115158081055,
				3.7023112773895264
			],
			"translation":[
				0,
				-7.3542073550925124e-06,
				0
			]
		},
		{
			"mesh":5,
			"name":"tela",
			"rotation":[
				0,
				-1,
				0,
				1.3794040114589734e-06
			],
			"scale":[
				-3.9977920055389404,
				-3.9977915287017822,
				-3.9977915287017822
			]
		},
		{
			"mesh":6,
			"name":"tupo",
			"translation":[
				0,
				-3.539509407346486e-06,
				0
			]
		},
		{
			"children":[
				0,
				1,
				2,
				3,
				4,
				5,
				6
			],
			"mesh":7,
			"name":"coffe-cup",
			"translation":[
				0,
				-2.5267061118938727e-06,
				0
			]
		},
		{
			"children":[
				7
			],
			"mesh":8,
			"name":"visor_agua",
			"rotation":[
				0,
				1,
				0,
				1.3868001360606286e-06
			],
			"scale":[
				0.03233680501580238,
				0.03233680874109268,
				0.03233680874109268
			],
			"translation":[
				-0.009433150291442871,
				0.18935590982437134,
				0.05673917010426521
			]
		}
	],
	"materials":[
		{
			"doubleSided":true,
			"name":"Branco-expresso",
			"pbrMetallicRoughness":{
				"baseColorFactor":[
					0.8999999761581421,
					0.9120000004768372,
					0.800000011920929,
					1
				],
				"metallicFactor":0,
				"roughnessFactor":0.5
			}
		},
		{
			"doubleSided":true,
			"name":"default",
			"pbrMetallicRoughness":{
				"baseColorFactor":[
					1,
					1,
					1,
					1
				],
				"metallicFactor":0,
				"roughnessFactor":0.5
			}
		},
		{
			"doubleSided":true,
			"name":"cromo",
			"pbrMetallicRoughness":{
				"baseColorFactor":[
					0.800000011920929,
					0.800000011920929,
					0.824313223361969,
					1
				],
				"metallicFactor":0,
				"roughnessFactor":0.5
			}
		},
		{
			"doubleSided":true,
			"name":"red_glass",
			"pbrMetallicRoughness":{
				"baseColorFactor":[
					0.3345524072647095,
					0,
					0,
					1
				],
				"metallicFactor":0,
				"roughnessFactor":0.5
			}
		},
		{
			"doubleSided":true,
			"name":"led",
			"pbrMetallicRoughness":{
				"baseColorFactor":[
					0.800000011920929,
					0.800000011920929,
					0.800000011920929,
					1
				],
				"metallicFactor":0,
				"roughnessFactor":0.5
			}
		},
		{
			"doubleSided":true,
			"name":"White ceramic",
			"pbrMetallicRoughness":{
				"baseColorFactor":[
					1,
					1,
					1,
					1
				],
				"metallicFactor":0,
				"roughnessFactor":0.5
			}
		},
		{
			"doubleSided":true,
			"name":"tela",
			"pbrMetallicRoughness":{
				"baseColorFactor":[
					0.800000011920929,
					0.800000011920929,
					0.800000011920929,
					1
				],
				"metallicFactor":0,
				"roughnessFactor":0.5
			}
		},
		{
			"doubleSided":true,
			"name":"Black paint",
			"pbrMetallicRoughness":{
				"baseColorFactor":[
					0,
					0,
					0,
					1
				],
				"metallicFactor":0,
				"roughnessFactor":0.5
			}
		},
		{
			"doubleSided":true,
			"name":"Chrome",
			"pbrMetallicRoughness":{
				"baseColorFactor":[
					0.6000000238418579,
					0.6000000238418579,
					0.5,
					1
				],
				"metallicFactor":0,
				"roughnessFactor":0.5
			}
		},
		{
			"doubleSided":true,
			"name":"carafe",
			"pbrMetallicRoughness":{
				"baseColorFactor":[
					0.6000000238418579,
					0.699999988079071,
					0.699999988079071,
					1
				],
				"metallicFactor":0,
				"roughnessFactor":0.5
			}
		}
	],
	"meshes":[
		{
			"name":"button",
			"primitives":[
				{
					"attributes":{
						"POSITION":0,
						"NORMAL":1
					},
					"indices":2,
					"material":0
				}
			]
		},
		{
			"name":"expresso",
			"primitives":[
				{
					"attributes":{
						"POSITION":3,
						"NORMAL":4
					},
					"indices":5,
					"material":0
				},
				{
					"attributes":{
						"POSITION":6,
						"NORMAL":7
					},
					"indices":8,
					"material":1
				},
				{
					"attributes":{
						"POSITION":9,
						"NORMAL":10
					},
					"indices":11,
					"material":2
				}
			]
		},
		{
			"name":"lamp",
			"primitives":[
				{
					"attributes":{
						"POSITION":12,
						"NORMAL":13
					},
					"indices":14,
					"material":3
				}
			]
		},
		{
			"name":"led",
			"primitives":[
				{
					"attributes":{
						"POSITION":15,
						"NORMAL":16
					},
					"indices":17,
					"material":4
				}
			]
		},
		{
			"name":"mugs",
			"primitives":[
				{
					"attributes":{
						"POSITION":18,
						"NORMAL":19
					},
					"indices":20,
					"material":5
				}
			]
		},
		{
			"name":"tela",
			"primitives":[
				{
					"attributes":{
						"POSITION":21,
						"NORMAL":22
					},
					"indices":17,
					"material":6
				}
			]
		},
		{
			"name":"tupo",
			"primitives":[
				{
					"attributes":{
						"POSITION":23,
						"NORMAL":24
					},
					"indices":25,
					"material":2
				},
				{
					"attributes":{
						"POSITION":26,
						"NORMAL":27
					},
					"indices":28,
					"material":7
				}
			]
		},
		{
			"name":"coffe-cup",
			"primitives":[
				{
					"attributes":{
						"POSITION":29,
						"NORMAL":30
					},
					"indices":31,
					"material":7
				},
				{
					"attributes":{
						"POSITION":32,
						"NORMAL":33
					},
					"indices":34,
					"material":8
				}
			]
		},
		{
			"name":"visor_agua",
			"primitives":[
				{
					"attributes":{
						"POSITION":35,
						"NORMAL":36
					},
					"indices":37,
					"material":9
				}
			]
		}
	],
	"accessors":[
		{
			"bufferView":0,
			"componentType":5126,
			"count":608,
			"max":[
				3.6385650634765625,
				3.874835968017578,
				-2.470541477203369
			],
			"min":[
				1.6385647058486938,
				1.874831199645996,
				-3.9300577640533447
			],
			"type":"VEC3"
		},
		{
			"bufferView":1,
			"componentType":5126,
			"count":608,
			"type":"VEC3"
		},
		{
			"bufferView":2,
			"componentType":5123,
			"count":1020,
			"type":"SCALAR"
		},
		{
			"bufferView":3,
			"componentType":5126,
			"count":1020,
			"max":[
				3.3335394859313965,
				3.2199957370758057,
				5.4148173332214355
			],
			"min":[
				-3.8879201412200928,
				-5.595610618591309,
				-2.168147563934326
			],
			"type":"VEC3"
		},
		{
			"bufferView":4,
			"componentType":5126,
			"count":1020,
			"type":"VEC3"
		},
		{
			"bufferView":5,
			"componentType":5123,
			"count":1749,
			"type":"SCALAR"
		},
		{
			"bufferView":6,
			"componentType":5126,
			"count":716,
			"max":[
				2.858473539352417,
				-5.600766181945801,
				5.048976898193359
			],
			"min":[
				-3.3349926471710205,
				-5.921599388122559,
				-1.8513453006744385
			],
			"type":"VEC3"
		},
		{
			"bufferView":7,
			"componentType":5126,
			"count":716,
			"type":"VEC3"
		},
		{
			"bufferView":8,
			"componentType":5123,
			"count":1104,
			"type":"SCALAR"
		},
		{
			"bufferView":9,
			"componentType":5126,
			"count":384,
			"max":[
				-2.496434211730957,
				2.5456759929656982,
				-2.183572292327881
			],
			"min":[
				-3.0804343223571777,
				1.961675763130188,
				-2.326251983642578
			],
			"type":"VEC3"
		},
		{
			"bufferView":10,
			"componentType":5126,
			"count":384,
			"type":"VEC3"
		},
		{
			"bufferView":11,
			"componentType":5123,
			"count":660,
			"type":"SCALAR"
		},
		{
			"bufferView":12,
			"componentType":5126,
			"count":288,
			"max":[
				-2.5821194648742676,
				2.459994077682495,
				-2.3037753105163574
			],
			"min":[
				-2.9947457313537598,
				2.047368049621582,
				-2.4616732597351074
			],
			"type":"VEC3"
		},
		{
			"bufferView":13,
			"componentType":5126,
			"count":288,
			"type":"VEC3"
		},
		{
			"bufferView":14,
			"componentType":5123,
			"count":468,
			"type":"SCALAR"
		},
		{
			"bufferView":15,
			"componentType":5126,
			"count":24,
			"max":[
				0.04366380721330643,
				0.06785039603710175,
				-0.06696243584156036
			],
			"min":[
				-0.02939542382955551,
				0.058060064911842346,
				-0.09116911888122559
			],
			"type":"VEC3"
		},
		{
			"bufferView":16,
			"componentType":5126,
			"count":24,
			"type":"VEC3"
		},
		{
			"bufferView":17,
			"componentType":5123,
			"count":36,
			"type":"SCALAR"
		},
		{
			"bufferView":18,
			"componentType":5126,
			"count":1124,
			"max":[
				0.7174463272094727,
				-0.39069369435310364,
				0.5870967507362366
			],
			"min":[
				-0.6037536859512329,
				-1.1587464809417725,
				-0.2587168216705322
			],
			"type":"VEC3"
		},
		{
			"bufferView":19,
			"componentType":5126,
			"count":1124,
			"type":"VEC3"
		},
		{
			"bufferView":20,
			"componentType":5123,
			"count":6624,
			"type":"SCALAR"
		},
		{
			"bufferView":21,
			"componentType":5126,
			"count":24,
			"max":[
				0.7649651169776917,
				1.109878420829773,
				0.3773314654827118
			],
			"min":[
				-0.8789210319519043,
				1.0733914375305176,
				-0.47996386885643005
			],
			"type":"VEC3"
		},
		{
			"bufferView":22,
			"componentType":5126,
			"count":24,
			"type":"VEC3"
		},
		{
			"bufferView":23,
			"componentType":5126,
			"count":1227,
			"max":[
				-2.6063809394836426,
				1.180490255355835,
				-0.46869468688964844
			],
			"min":[
				-4.955512046813965,
				-0.020907849073410034,
				-0.8580367565155029
			],
			"type":"VEC3"
		},
		{
			"bufferView":24,
			"componentType":5126,
			"count":1227,
			"type":"VEC3"
		},
		{
			"bufferView":25,
			"componentType":5123,
			"count":1992,
			"type":"SCALAR"
		},
		{
			"bufferView":26,
			"componentType":5126,
			"count":817,
			"max":[
				2.004101276397705,
				1.8571555614471436,
				1.593367099761963
			],
			"min":[
				-5.119328022003174,
				-1.3184924125671387,
				-1.5697933435440063
			],
			"type":"VEC3"
		},
		{
			"bufferView":27,
			"componentType":5126,
			"count":817,
			"type":"VEC3"
		},
		{
			"bufferView":28,
			"componentType":5123,
			"count":1464,
			"type":"SCALAR"
		},
		{
			"bufferView":29,
			"componentType":5126,
			"count":252,
			"max":[
				0.5403035283088684,
				1.939389705657959,
				-2.2465739250183105
			],
			"min":[
				-0.7535189986228943,
				0.0032191090285778046,
				-5.412332057952881
			],
			"type":"VEC3"
		},
		{
			"bufferView":30,
			"componentType":5126,
			"count":252,
			"type":"VEC3"
		},
		{
			"bufferView":31,
			"componentType":5123,
			"count":408,
			"type":"SCALAR"
		},
		{
			"bufferView":32,
			"componentType":5126,
			"count":1873,
			"max":[
				1.3482681512832642,
				0.8651252388954163,
				1.2165439128875732
			],
			"min":[
				-1.5557323694229126,
				-0.9569292664527893,
				-2.303452253341675
			],
			"type":"VEC3"
		},
		{
			"bufferView":33,
			"componentType":5126,
			"count":1873,
			"type":"VEC3"
		},
		{
			"bufferView":34,
			"componentType":5123,
			"count":3414,
			"type":"SCALAR"
		},
		{
			"bufferView":35,
			"componentType":5126,
			"count":242,
			"max":[
				3.2794947624206543,
				3.2096316814422607,
				5.416193008422852
			],
			"min":[
				-3.8972926139831543,
				-5.265454292297363,
				1.8436174392700195
			],
			"type":"VEC3"
		},
		{
			"bufferView":36,
			"componentType":5126,
			"count":242,
			"type":"VEC3"
		},
		{
			"bufferView":37,
			"componentType":5123,
			"count":432,
			"type":"SCALAR"
		}
	],
	"bufferViews":[
		{
			"buffer":0,
			"byteLength":7296,
			"byteOffset":0,
			"target":34962
		},
		{
			"buffer":0,
			"byteLength":7296,
			"byteOffset":7296,
			"target":34962
		},
		{
			"buffer":0,
			"byteLength":2040,
			"byteOffset":14592,
			"target":34963
		},
		{
			"buffer":0,
			"byteLength":12240,
			"byteOffset":16632,
			"target":34962
		},
		{
			"buffer":0,
			"byteLength":12240,
			"byteOffset":28872,
			"target":34962
		},
		{
			"buffer":0,
			"byteLength":3498,
			"byteOffset":41112,
			"target":34963
		},
		{
			"buffer":0,
			"byteLength":8592,
			"byteOffset":44612,
			"target":34962
		},
		{
			"buffer":0,
			"byteLength":8592,
			"byteOffset":53204,
			"target":34962
		},
		{
			"buffer":0,
			"byteLength":2208,
			"byteOffset":61796,
			"target":34963
		},
		{
			"buffer":0,
			"byteLength":4608,
			"byteOffset":64004,
			"target":34962
		},
		{
			"buffer":0,
			"byteLength":4608,
			"byteOffset":68612,
			"target":34962
		},
		{
			"buffer":0,
			"byteLength":1320,
			"byteOffset":73220,
			"target":34963
		},
		{
			"buffer":0,
			"byteLength":3456,
			"byteOffset":74540,
			"target":34962
		},
		{
			"buffer":0,
			"byteLength":3456,
			"byteOffset":77996,
			"target":34962
		},
		{
			"buffer":0,
			"byteLength":936,
			"byteOffset":81452,
			"target":34963
		},
		{
			"buffer":0,
			"byteLength":288,
			"byteOffset":82388,
			"target":34962
		},
		{
			"buffer":0,
			"byteLength":288,
			"byteOffset":82676,
			"target":34962
		},
		{
			"buffer":0,
			"byteLength":72,
			"byteOffset":82964,
			"target":34963
		},
		{
			"buffer":0,
			"byteLength":13488,
			"byteOffset":83036,
			"target":34962
		},
		{
			"buffer":0,
			"byteLength":13488,
			"byteOffset":96524,
			"target":34962
		},
		{
			"buffer":0,
			"byteLength":13248,
			"byteOffset":110012,
			"target":34963
		},
		{
			"buffer":0,
			"byteLength":288,
			"byteOffset":123260,
			"target":34962
		},
		{
			"buffer":0,
			"byteLength":288,
			"byteOffset":123548,
			"target":34962
		},
		{
			"buffer":0,
			"byteLength":14724,
			"byteOffset":123836,
			"target":34962
		},
		{
			"buffer":0,
			"byteLength":14724,
			"byteOffset":138560,
			"target":34962
		},
		{
			"buffer":0,
			"byteLength":3984,
			"byteOffset":153284,
			"target":34963
		},
		{
			"buffer":0,
			"byteLength":9804,
			"byteOffset":157268,
			"target":34962
		},
		{
			"buffer":0,
			"byteLength":9804,
			"byteOffset":167072,
			"target":34962
		},
		{
			"buffer":0,
			"byteLength":2928,
			"byteOffset":176876,
			"target":34963
		},
		{
			"buffer":0,
			"byteLength":3024,
			"byteOffset":179804,
			"target":34962
		},
		{
			"buffer":0,
			"byteLength":3024,
			"byteOffset":182828,
			"target":34962
		},
		{
			"buffer":0,
			"byteLength":816,
			"byteOffset":185852,
			"target":34963
		},
		{
			"buffer":0,
			"byteLength":22476,
			"byteOffset":186668,
			"target":34962
		},
		{
			"buffer":0,
			"byteLength":22476,
			"byteOffset":209144,
			"target":34962
		},
		{
			"buffer":0,
			"byteLength":6828,
			"byteOffset":231620,
			"target":34963
		},
		{
			"buffer":0,
			"byteLength":2904,
			"byteOffset":238448,
			"target":34962
		},
		{
			"buffer":0,
			"byteLength":2904,
			"byteOffset":241352,
			"target":34962
		},
		{
			"buffer":0,
			"byteLength":864,
			"byteOffset":244256,
			"target":34963
		}
	],
	"buffers":[
		{
			"byteLength":245120,
			"uri":"data:application/octet-stream;base64,"
		}
	]
}
