{
	"asset":{
		"generator":"Khronos glTF Blender I/O v3.5.30",
		"version":"2.0"
	},
	"extensionsUsed":[
		"KHR_materials_emissive_strength"
	],
	"scene":0,
	"scenes":[
		{
			"name":"Scene",
			"nodes":[
				0,
				1,
				2,
				3,
				4,
				5,
				6,
				7,
				8,
				9,
				10,
				11,
				12
			]
		}
	],
	"nodes":[
		{
			"mesh":0,
			"name":"Plane.011",
			"translation":[
				0,
				0.03140288591384888,
				0.1567528247833252
			]
		},
		{
			"mesh":1,
			"name":"Plane.008",
			"rotation":[
				0.3054981231689453,
				0.004280897323042154,
				-0.011982974596321583,
				0.9521076679229736
			],
			"scale":[
				0.8001458048820496,
				0.9998834729194641,
				1
			],
			"translation":[
				0,
				0.42046356201171875,
				0.1567528247833252
			]
		},
		{
			"mesh":2,
			"name":"Plane.007",
			"scale":[
				0.800000011920929,
				1,
				1
			],
			"translation":[
				0,
				0.35544252395629883,
				0.1567528247833252
			]
		},
		{
			"mesh":3,
			"name":"buttonTL",
			"scale":[
				0.800000011920929,
				1,
				1
			],
			"translation":[
				0,
				0.35544252395629883,
				0.1567528247833252
			]
		},
		{
			"mesh":4,
			"name":"Plane.005",
			"scale":[
				0.800000011920929,
				1,
				1
			],
			"translation":[
				0,
				0.42770862579345703,
				0.025332212448120117
			]
		},
		{
			"mesh":5,
			"name":"Plane.004",
			"scale":[
				0.800000011920929,
				1,
				1
			],
			"translation":[
				0,
				0.42230844497680664,
				0.025332212448120117
			]
		},
		{
			"mesh":6,
			"name":"Plane.003",
			"scale":[
				0.800000011920929,
				1,
				1
			],
			"translation":[
				0,
				0.35544252395629883,
				0.1567528247833252
			]
		},
		{
			"mesh":7,
			"name":"Circle",
			"scale":[
				0.800000011920929,
				0.800000011920929,
				1
			],
			"translation":[
				0,
				0.3419039249420166,
				0.18339014053344727
			]
		},
		{
			"mesh":8,
			"name":"Plane.002",
			"scale":[
				0.800000011920929,
				1,
				1
			],
			"translation":[
				0,
				0.2431013584136963,
				0.18471074104309082
			]
		},
		{
			"mesh":9,
			"name":"Plane.001",
			"scale":[
				0.800000011920929,
				1,
				1
			],
			"translation":[
				0,
				0.06255769729614258,
				0.22399497032165527
			]
		},
		{
			"mesh":10,
			"name":"Plane",
			"scale":[
				0.800000011920929,
				1,
				1
			],
			"translation":[
				0,
				0.35544252395629883,
				0.1567528247833252
			]
		},
		{
			"mesh":11,
			"name":"Plane.006",
			"rotation":[
				0.2253844290971756,
				-0.34339943528175354,
				0.08526238054037094,
				0.9077495336532593
			],
			"scale":[
				0.04822985827922821,
				0.05306023359298706,
				0.050564199686050415
			],
			"translation":[
				-1.6879010200500488,
				1.1633565425872803,
				2.809023857116699
			]
		},
		{
			"mesh":12,
			"name":"Circle.001",
			"scale":[
				0.800000011920929,
				1,
				1
			],
			"translation":[
				0.08729255199432373,
				0.24549055099487305,
				0.2228841930627823
			]
		}
	],
	"materials":[
		{
			"doubleSided":true,
			"name":"blackPlastic",
			"pbrMetallicRoughness":{}
		},
		{
			"doubleSided":true,
			"emissiveFactor":[
				0.18982505798339844,
				0.800000011920929,
				0.1746070832014084
			],
			"name":"lumi",
			"pbrMetallicRoughness":{
				"baseColorFactor":[
					0,
					0,
					0,
					1
				]
			}
		},
		{
			"doubleSided":true,
			"name":"shineyText",
			"pbrMetallicRoughness":{}
		},
		{
			"doubleSided":true,
			"name":"button",
			"pbrMetallicRoughness":{}
		},
		{
			"doubleSided":true,
			"name":"clearPlastic",
			"pbrMetallicRoughness":{}
		},
		{
			"doubleSided":true,
			"name":"shiney",
			"pbrMetallicRoughness":{}
		},
		{
			"doubleSided":true,
			"name":"whitePlastic",
			"pbrMetallicRoughness":{}
		},
		{
			"doubleSided":true,
			"name":"stainless",
			"pbrMetallicRoughness":{}
		},
		{
			"doubleSided":true,
			"emissiveFactor":[
				1,
				1,
				1
			],
			"extensions":{
				"KHR_materials_emissive_strength":{
					"emissiveStrength":3.200000047683716
				}
			},
			"name":"Material",
			"pbrMetallicRoughness":{
				"baseColorFactor":[
					0,
					0,
					0,
					1
				]
			}
		},
		{
			"doubleSided":true,
			"name":"greyPlastic",
			"pbrMetallicRoughness":{}
		}
	],
	"meshes":[
		{
			"name":"Plane.008",
			"primitives":[
				{
					"attributes":{
						"POSITION":0,
						"NORMAL":1
					},
					"indices":2,
					"material":0
				}
			]
		},
		{
			"name":"Plane.014",
			"primitives":[
				{
					"attributes":{
						"POSITION":3,
						"TEXCOORD_0":4,
						"NORMAL":5
					},
					"indices":6,
					"material":1
				}
			]
		},
		{
			"name":"Plane.007",
			"primitives":[
				{
					"attributes":{
						"POSITION":7,
						"TEXCOORD_0":8,
						"NORMAL":9
					},
					"indices":10,
					"material":2
				}
			]
		},
		{
			"name":"Plane.006",
			"primitives":[
				{
					"attributes":{
						"POSITION":11,
						"TEXCOORD_0":12,
						"NORMAL":13
					},
					"indices":14,
					"material":3
				}
			]
		},
		{
			"name":"Plane.005",
			"primitives":[
				{
					"attributes":{
						"POSITION":15,
						"NORMAL":16
					},
					"indices":17,
					"material":4
				}
			]
		},
		{
			"name":"Plane.004",
			"primitives":[
				{
					"attributes":{
						"POSITION":18,
						"NORMAL":19
					},
					"indices":20,
					"material":4
				}
			]
		},
		{
			"name":"Plane.003",
			"primitives":[
				{
					"attributes":{
						"POSITION":21,
						"NORMAL":22
					},
					"indices":23,
					"material":4
				}
			]
		},
		{
			"name":"Circle",
			"primitives":[
				{
					"attributes":{
						"POSITION":24,
						"NORMAL":25
					},
					"indices":26,
					"material":5
				}
			]
		},
		{
			"name":"Plane.002",
			"primitives":[
				{
					"attributes":{
						"POSITION":27,
						"NORMAL":28
					},
					"indices":29,
					"material":5
				},
				{
					"attributes":{
						"POSITION":30,
						"NORMAL":31
					},
					"indices":32,
					"material":6
				}
			]
		},
		{
			"name":"Plane.001",
			"primitives":[
				{
					"attributes":{
						"POSITION":33,
						"NORMAL":34
					},
					"indices":35,
					"material":5
				}
			]
		},
		{
			"name":"Plane",
			"primitives":[
				{
					"attributes":{
						"POSITION":36,
						"NORMAL":37
					},
					"indices":38,
					"material":7
				},
				{
					"attributes":{
						"POSITION":39,
						"NORMAL":40
					},
					"indices":41,
					"material":0
				}
			]
		},
		{
			"name":"Plane.013",
			"primitives":[
				{
					"attributes":{
						"POSITION":42,
						"NORMAL":43
					},
					"indices":44,
					"material":8
				}
			]
		},
		{
			"name":"Circle.004",
			"primitives":[
				{
					"attributes":{
						"POSITION":45,
						"NORMAL":46
					},
					"indices":47,
					"material":9
				},
				{
					"attributes":{
						"POSITION":48,
						"NORMAL":49
					},
					"indices":50,
					"material":4
				},
				{
					"attributes":{
						"POSITION":51,
						"NORMAL":52
					},
					"indices":53,
					"material":0
				}
			]
		}
	],
	"accessors":[
		{
			"bufferView":0,
			"componentType":5126,
			"count":4,
			"max":[
				0.13929365575313568,
				-0.019071616232395172,
				0.13938868045806885
			],
			"min":[
				-0.1393178552389145,
				-0.019071616232395172,
				-0.23176895081996918
			],
			"type":"VEC3"
		},
		{
			"bufferView":1,
			"componentType":5126,
			"count":4,
			"type":"VEC3"
		},
		{
			"bufferView":2,
			"componentType":5123,
			"count":6,
			"type":"SCALAR"
		},
		{
			"bufferView":3,
			"componentType":5126,
			"count":16,
			"max":[
				0.03553207591176033,
				3.291340311406543e-09,
				0.024555662646889687
			],
			"min":[
				-0.035532087087631226,
				-3.291340311406543e-09,
				-0.02455567941069603
			],
			"type":"VEC3"
		},
		{
			"bufferView":4,
			"componentType":5126,
			"count":16,
			"type":"VEC2"
		},
		{
			"bufferView":5,
			"componentType":5126,
			"count":16,
			"type":"VEC3"
		},
		{
			"bufferView":6,
			"componentType":5123,
			"count":54,
			"type":"SCALAR"
		},
		{
			"bufferView":7,
			"componentType":5126,
			"count":453,
			"max":[
				0.07804502546787262,
				0.0823836624622345,
				0.02636045217514038
			],
			"min":[
				-0.07804502546787262,
				-0.2926630675792694,
				-0.028031233698129654
			],
			"type":"VEC3"
		},
		{
			"bufferView":8,
			"componentType":5126,
			"count":453,
			"type":"VEC2"
		},
		{
			"bufferView":9,
			"componentType":5126,
			"count":453,
			"type":"VEC3"
		},
		{
			"bufferView":10,
			"componentType":5123,
			"count":2436,
			"type":"SCALAR"
		},
		{
			"bufferView":11,
			"componentType":5126,
			"count":224,
			"max":[
				0.07694711536169052,
				0.07768195867538452,
				0.010097033344209194
			],
			"min":[
				-0.07694711536169052,
				0.04546865075826645,
				-0.024350730702280998
			],
			"type":"VEC3"
		},
		{
			"bufferView":12,
			"componentType":5126,
			"count":224,
			"type":"VEC2"
		},
		{
			"bufferView":13,
			"componentType":5126,
			"count":224,
			"type":"VEC3"
		},
		{
			"bufferView":14,
			"componentType":5123,
			"count":1128,
			"type":"SCALAR"
		},
		{
			"bufferView":15,
			"componentType":5126,
			"count":110,
			"max":[
				0.13770028948783875,
				0.04754237085580826,
				0
			],
			"min":[
				0,
				0.020130353048443794,
				-0.08907248824834824
			],
			"type":"VEC3"
		},
		{
			"bufferView":16,
			"componentType":5126,
			"count":110,
			"type":"VEC3"
		},
		{
			"bufferView":17,
			"componentType":5123,
			"count":540,
			"type":"SCALAR"
		},
		{
			"bufferView":18,
			"componentType":5126,
			"count":84,
			"max":[
				0,
				0.030312981456518173,
				0
			],
			"min":[
				-0.13792859017848969,
				-0.00416878517717123,
				-0.08964070677757263
			],
			"type":"VEC3"
		},
		{
			"bufferView":19,
			"componentType":5126,
			"count":84,
			"type":"VEC3"
		},
		{
			"bufferView":20,
			"componentType":5123,
			"count":402,
			"type":"SCALAR"
		},
		{
			"bufferView":21,
			"componentType":5126,
			"count":114,
			"max":[
				0.045206326991319656,
				0.0823836624622345,
				0.026496639475226402
			],
			"min":[
				-0.0003936910361517221,
				0.0472862534224987,
				-0.02422632835805416
			],
			"type":"VEC3"
		},
		{
			"bufferView":22,
			"componentType":5126,
			"count":114,
			"type":"VEC3"
		},
		{
			"bufferView":23,
			"componentType":5123,
			"count":624,
			"type":"SCALAR"
		},
		{
			"bufferView":24,
			"componentType":5126,
			"count":233,
			"max":[
				0.031459320336580276,
				0.03145931288599968,
				0.024842726066708565
			],
			"min":[
				-0.03145930916070938,
				-0.03145931288599968,
				-3.21865201158289e-09
			],
			"type":"VEC3"
		},
		{
			"bufferView":25,
			"componentType":5126,
			"count":233,
			"type":"VEC3"
		},
		{
			"bufferView":26,
			"componentType":5123,
			"count":1344,
			"type":"SCALAR"
		},
		{
			"bufferView":27,
			"componentType":5126,
			"count":84,
			"max":[
				0.03507484495639801,
				0.043817631900310516,
				0.0666201263666153
			],
			"min":[
				-3.21865201158289e-09,
				-0.03791698068380356,
				-0.0017174726817756891
			],
			"type":"VEC3"
		},
		{
			"bufferView":28,
			"componentType":5126,
			"count":84,
			"type":"VEC3"
		},
		{
			"bufferView":29,
			"componentType":5123,
			"count":420,
			"type":"SCALAR"
		},
		{
			"bufferView":30,
			"componentType":5126,
			"count":24,
			"max":[
				0.02012041211128235,
				-0.03756950423121452,
				0.036168359220027924
			],
			"min":[
				0.011927870102226734,
				-0.055459339171648026,
				0.027975821867585182
			],
			"type":"VEC3"
		},
		{
			"bufferView":31,
			"componentType":5126,
			"count":24,
			"type":"VEC3"
		},
		{
			"bufferView":32,
			"componentType":5123,
			"count":96,
			"type":"SCALAR"
		},
		{
			"bufferView":33,
			"componentType":5126,
			"count":1050,
			"max":[
				0.1770738661289215,
				0,
				0
			],
			"min":[
				0,
				-0.0016567946877330542,
				-0.07747145742177963
			],
			"type":"VEC3"
		},
		{
			"bufferView":34,
			"componentType":5126,
			"count":1050,
			"type":"VEC3"
		},
		{
			"bufferView":35,
			"componentType":5123,
			"count":2964,
			"type":"SCALAR"
		},
		{
			"bufferView":36,
			"componentType":5126,
			"count":564,
			"max":[
				0.17994631826877594,
				0.07768161594867706,
				0.009948992170393467
			],
			"min":[
				0,
				-0.31741780042648315,
				-0.24925526976585388
			],
			"type":"VEC3"
		},
		{
			"bufferView":37,
			"componentType":5126,
			"count":564,
			"type":"VEC3"
		},
		{
			"bufferView":38,
			"componentType":5123,
			"count":3042,
			"type":"SCALAR"
		},
		{
			"bufferView":39,
			"componentType":5126,
			"count":108,
			"max":[
				0.17887969315052032,
				-0.2929430902004242,
				0.14712363481521606
			],
			"min":[
				0,
				-0.34505394101142883,
				-0.24942532181739807
			],
			"type":"VEC3"
		},
		{
			"bufferView":40,
			"componentType":5126,
			"count":108,
			"type":"VEC3"
		},
		{
			"bufferView":41,
			"componentType":5123,
			"count":522,
			"type":"SCALAR"
		},
		{
			"bufferView":42,
			"componentType":5126,
			"count":4,
			"max":[
				4.735421180725098,
				0,
				4.7354207038879395
			],
			"min":[
				-4.735421657562256,
				0,
				-4.7354230880737305
			],
			"type":"VEC3"
		},
		{
			"bufferView":43,
			"componentType":5126,
			"count":4,
			"type":"VEC3"
		},
		{
			"bufferView":44,
			"componentType":5123,
			"count":6,
			"type":"SCALAR"
		},
		{
			"bufferView":45,
			"componentType":5126,
			"count":124,
			"max":[
				0.06793367862701416,
				0.021245934069156647,
				0.04329141229391098
			],
			"min":[
				-0.08204981684684753,
				-0.0021845437586307526,
				-3.21865201158289e-09
			],
			"type":"VEC3"
		},
		{
			"bufferView":46,
			"componentType":5126,
			"count":124,
			"type":"VEC3"
		},
		{
			"bufferView":47,
			"componentType":5123,
			"count":588,
			"type":"SCALAR"
		},
		{
			"bufferView":48,
			"componentType":5126,
			"count":162,
			"max":[
				0.06793367862701416,
				-0.0021845437586307526,
				0.04074006527662277
			],
			"min":[
				-0.06793367117643356,
				-0.18473511934280396,
				-3.21865201158289e-09
			],
			"type":"VEC3"
		},
		{
			"bufferView":49,
			"componentType":5126,
			"count":162,
			"type":"VEC3"
		},
		{
			"bufferView":50,
			"componentType":5123,
			"count":858,
			"type":"SCALAR"
		},
		{
			"bufferView":51,
			"componentType":5126,
			"count":72,
			"max":[
				0.06793367862701416,
				0.030909709632396698,
				0.04071006551384926
			],
			"min":[
				-0.06793367117643356,
				0.021245934069156647,
				-3.21865201158289e-09
			],
			"type":"VEC3"
		},
		{
			"bufferView":52,
			"componentType":5126,
			"count":72,
			"type":"VEC3"
		},
		{
			"bufferView":53,
			"componentType":5123,
			"count":342,
			"type":"SCALAR"
		}
	],
	"bufferViews":[
		{
			"buffer":0,
			"byteLength":48,
			"byteOffset":0,
			"target":34962
		},
		{
			"buffer":0,
			"byteLength":48,
			"byteOffset":48,
			"target":34962
		},
		{
			"buffer":0,
			"byteLength":12,
			"byteOffset":96,
			"target":34963
		},
		{
			"buffer":0,
			"byteLength":192,
			"byteOffset":108,
			"target":34962
		},
		{
			"buffer":0,
			"byteLength":128,
			"byteOffset":300,
			"target":34962
		},
		{
			"buffer":0,
			"byteLength":192,
			"byteOffset":428,
			"target":34962
		},
		{
			"buffer":0,
			"byteLength":108,
			"byteOffset":620,
			"target":34963
		},
		{
			"buffer":0,
			"byteLength":5436,
			"byteOffset":728,
			"target":34962
		},
		{
			"buffer":0,
			"byteLength":3624,
			"byteOffset":6164,
			"target":34962
		},
		{
			"buffer":0,
			"byteLength":5436,
			"byteOffset":9788,
			"target":34962
		},
		{
			"buffer":0,
			"byteLength":4872,
			"byteOffset":15224,
			"target":34963
		},
		{
			"buffer":0,
			"byteLength":2688,
			"byteOffset":20096,
			"target":34962
		},
		{
			"buffer":0,
			"byteLength":1792,
			"byteOffset":22784,
			"target":34962
		},
		{
			"buffer":0,
			"byteLength":2688,
			"byteOffset":24576,
			"target":34962
		},
		{
			"buffer":0,
			"byteLength":2256,
			"byteOffset":27264,
			"target":34963
		},
		{
			"buffer":0,
			"byteLength":1320,
			"byteOffset":29520,
			"target":34962
		},
		{
			"buffer":0,
			"byteLength":1320,
			"byteOffset":30840,
			"target":34962
		},
		{
			"buffer":0,
			"byteLength":1080,
			"byteOffset":32160,
			"target":34963
		},
		{
			"buffer":0,
			"byteLength":1008,
			"byteOffset":33240,
			"target":34962
		},
		{
			"buffer":0,
			"byteLength":1008,
			"byteOffset":34248,
			"target":34962
		},
		{
			"buffer":0,
			"byteLength":804,
			"byteOffset":35256,
			"target":34963
		},
		{
			"buffer":0,
			"byteLength":1368,
			"byteOffset":36060,
			"target":34962
		},
		{
			"buffer":0,
			"byteLength":1368,
			"byteOffset":37428,
			"target":34962
		},
		{
			"buffer":0,
			"byteLength":1248,
			"byteOffset":38796,
			"target":34963
		},
		{
			"buffer":0,
			"byteLength":2796,
			"byteOffset":40044,
			"target":34962
		},
		{
			"buffer":0,
			"byteLength":2796,
			"byteOffset":42840,
			"target":34962
		},
		{
			"buffer":0,
			"byteLength":2688,
			"byteOffset":45636,
			"target":34963
		},
		{
			"buffer":0,
			"byteLength":1008,
			"byteOffset":48324,
			"target":34962
		},
		{
			"buffer":0,
			"byteLength":1008,
			"byteOffset":49332,
			"target":34962
		},
		{
			"buffer":0,
			"byteLength":840,
			"byteOffset":50340,
			"target":34963
		},
		{
			"buffer":0,
			"byteLength":288,
			"byteOffset":51180,
			"target":34962
		},
		{
			"buffer":0,
			"byteLength":288,
			"byteOffset":51468,
			"target":34962
		},
		{
			"buffer":0,
			"byteLength":192,
			"byteOffset":51756,
			"target":34963
		},
		{
			"buffer":0,
			"byteLength":12600,
			"byteOffset":51948,
			"target":34962
		},
		{
			"buffer":0,
			"byteLength":12600,
			"byteOffset":64548,
			"target":34962
		},
		{
			"buffer":0,
			"byteLength":5928,
			"byteOffset":77148,
			"target":34963
		},
		{
			"buffer":0,
			"byteLength":6768,
			"byteOffset":83076,
			"target":34962
		},
		{
			"buffer":0,
			"byteLength":6768,
			"byteOffset":89844,
			"target":34962
		},
		{
			"buffer":0,
			"byteLength":6084,
			"byteOffset":96612,
			"target":34963
		},
		{
			"buffer":0,
			"byteLength":1296,
			"byteOffset":102696,
			"target":34962
		},
		{
			"buffer":0,
			"byteLength":1296,
			"byteOffset":103992,
			"target":34962
		},
		{
			"buffer":0,
			"byteLength":1044,
			"byteOffset":105288,
			"target":34963
		},
		{
			"buffer":0,
			"byteLength":48,
			"byteOffset":106332,
			"target":34962
		},
		{
			"buffer":0,
			"byteLength":48,
			"byteOffset":106380,
			"target":34962
		},
		{
			"buffer":0,
			"byteLength":12,
			"byteOffset":106428,
			"target":34963
		},
		{
			"buffer":0,
			"byteLength":1488,
			"byteOffset":106440,
			"target":34962
		},
		{
			"buffer":0,
			"byteLength":1488,
			"byteOffset":107928,
			"target":34962
		},
		{
			"buffer":0,
			"byteLength":1176,
			"byteOffset":109416,
			"target":34963
		},
		{
			"buffer":0,
			"byteLength":1944,
			"byteOffset":110592,
			"target":34962
		},
		{
			"buffer":0,
			"byteLength":1944,
			"byteOffset":112536,
			"target":34962
		},
		{
			"buffer":0,
			"byteLength":1716,
			"byteOffset":114480,
			"target":34963
		},
		{
			"buffer":0,
			"byteLength":864,
			"byteOffset":116196,
			"target":34962
		},
		{
			"buffer":0,
			"byteLength":864,
			"byteOffset":117060,
			"target":34962
		},
		{
			"buffer":0,
			"byteLength":684,
			"byteOffset":117924,
			"target":34963
		}
	],
	"buffers":[
		{
			"byteLength":118608,
			"uri":"data:application/octet-stream;base64,"
		}
	]
}
