{
	"asset":{
		"generator":"Khronos glTF Blender I/O v3.5.30",
		"version":"2.0"
	},
	"scene":0,
	"scenes":[
		{
			"name":"Scene",
			"nodes":[
				0,
				1,
				2,
				3
			]
		}
	],
	"nodes":[
		{
			"mesh":0,
			"name":"CHAVENA",
			"rotation":[
				0.5631839632987976,
				-0.4275790750980377,
				0.42757904529571533,
				0.5631839632987976
			],
			"scale":[
				0.5708043575286865,
				0.5708043575286865,
				0.5708043575286865
			],
			"translation":[
				0.13636809587478638,
				3.479271650314331,
				5.126109600067139
			]
		},
		{
			"mesh":1,
			"name":"aqua",
			"rotation":[
				-0.7071068286895752,
				0,
				0,
				0.7071068286895752
			],
			"translation":[
				-0.011058930307626724,
				3.3295228481292725,
				2.8113088607788086
			]
		},
		{
			"name":"Empty",
			"translation":[
				-4.968136310577393,
				-0.23926246166229248,
				0.7742764949798584
			]
		},
		{
			"mesh":2,
			"name":"Nespresso maquina",
			"rotation":[
				-0.7071068286895752,
				0,
				0,
				0.7071068286895752
			],
			"translation":[
				-0.011058930307626724,
				3.3295228481292725,
				2.8113088607788086
			]
		}
	],
	"materials":[
		{
			"doubleSided":true,
			"name":"policarbonato",
			"pbrMetallicRoughness":{}
		},
		{
			"doubleSided":true,
			"name":"CAFE",
			"pbrMetallicRoughness":{}
		},
		{
			"doubleSided":true,
			"name":"CREME",
			"pbrMetallicRoughness":{}
		},
		{
			"doubleSided":true,
			"name":"AGUA",
			"pbrMetallicRoughness":{}
		},
		{
			"doubleSided":true,
			"name":"metal",
			"pbrMetallicRoughness":{}
		},
		{
			"doubleSided":true,
			"name":"white mate",
			"pbrMetallicRoughness":{}
		},
		{
			"doubleSided":true,
			"name":"GREEN MATERIAL",
			"pbrMetallicRoughness":{}
		},
		{
			"doubleSided":true,
			"name":"PLASTICO PRETO",
			"pbrMetallicRoughness":{}
		},
		{
			"doubleSided":true,
			"name":"PLASTICO PRETO.REFLEC",
			"pbrMetallicRoughness":{}
		},
		{
			"doubleSided":true,
			"name":"PLACA METALICA",
			"pbrMetallicRoughness":{}
		},
		{
			"doubleSided":true,
			"emissiveFactor":[
				0.20000000298023224,
				0,
				0
			],
			"name":"onOF",
			"pbrMetallicRoughness":{
				"baseColorFactor":[
					0,
					0,
					0,
					1
				]
			}
		},
		{
			"doubleSided":true,
			"emissiveFactor":[
				0,
				1,
				0.0011429786682128906
			],
			"name":"Cofee",
			"pbrMetallicRoughness":{
				"baseColorFactor":[
					0,
					0,
					0,
					1
				]
			}
		}
	],
	"meshes":[
		{
			"name":"Plane.014",
			"primitives":[
				{
					"attributes":{
						"POSITION":0,
						"NORMAL":1
					},
					"indices":2,
					"material":0
				},
				{
					"attributes":{
						"POSITION":3,
						"NORMAL":4
					},
					"indices":5,
					"material":1
				},
				{
					"attributes":{
						"POSITION":6,
						"NORMAL":7
					},
					"indices":8,
					"material":2
				}
			]
		},
		{
			"name":"Plane.003",
			"primitives":[
				{
					"attributes":{
						"POSITION":9,
						"NORMAL":10
					},
					"indices":11,
					"material":3
				}
			]
		},
		{
			"name":"Plane",
			"primitives":[
				{
					"attributes":{
						"POSITION":12,
						"TEXCOORD_0":13,
						"NORMAL":14
					},
					"indices":15,
					"material":4
				},
				{
					"attributes":{
						"POSITION":16,
						"TEXCOORD_0":17,
						"NORMAL":18
					},
					"indices":19,
					"material":5
				},
				{
					"attributes":{
						"POSITION":20,
						"TEXCOORD_0":21,
						"NORMAL":22
					},
					"indices":23,
					"material":6
				},
				{
					"attributes":{
						"POSITION":24,
						"TEXCOORD_0":25,
						"NORMAL":26
					},
					"indices":27,
					"material":7
				},
				{
					"attributes":{
						"POSITION":28,
						"TEXCOORD_0":29,
						"NORMAL":30
					},
					"indices":31,
					"material":8
				},
				{
					"attributes":{
						"POSITION":32,
						"TEXCOORD_0":33,
						"NORMAL":34
					},
					"indices":35,
					"material":0
				},
				{
					"attributes":{
						"POSITION":36,
						"TEXCOORD_0":37,
						"NORMAL":38
					},
					"indices":39,
					"material":9
				},
				{
					"attributes":{
						"POSITION":40,
						"TEXCOORD_0":41,
						"NORMAL":42
					},
					"indices":43,
					"material":2
				},
				{
					"attributes":{
						"POSITION":44,
						"TEXCOORD_0":45,
						"NORMAL":46
					},
					"indices":47,
					"material":10
				},
				{
					"attributes":{
						"POSITION":48,
						"TEXCOORD_0":49,
						"NORMAL":50
					},
					"indices":51,
					"material":11
				}
			]
		}
	],
	"accessors":[
		{
			"bufferView":0,
			"componentType":5126,
			"count":387,
			"max":[
				2.5720407962799072,
				2.532966136932373,
				0.08394943922758102
			],
			"min":[
				-2.572040557861328,
				-3.7652902603149414,
				-5.2306671142578125
			],
			"type":"VEC3"
		},
		{
			"bufferView":1,
			"componentType":5126,
			"count":387,
			"type":"VEC3"
		},
		{
			"bufferView":2,
			"componentType":5123,
			"count":2259,
			"type":"SCALAR"
		},
		{
			"bufferView":3,
			"componentType":5126,
			"count":77,
			"max":[
				2.017820358276367,
				2.0251729488372803,
				-0.2936069965362549
			],
			"min":[
				-2.017820358276367,
				-2.025171995162964,
				-3.2852935791015625
			],
			"type":"VEC3"
		},
		{
			"bufferView":4,
			"componentType":5126,
			"count":77,
			"type":"VEC3"
		},
		{
			"bufferView":5,
			"componentType":5123,
			"count":399,
			"type":"SCALAR"
		},
		{
			"bufferView":6,
			"componentType":5126,
			"count":170,
			"max":[
				2.1102724075317383,
				2.117962121963501,
				-3.2852935791015625
			],
			"min":[
				-2.1102724075317383,
				-2.1179609298706055,
				-3.8295230865478516
			],
			"type":"VEC3"
		},
		{
			"bufferView":7,
			"componentType":5126,
			"count":170,
			"type":"VEC3"
		},
		{
			"bufferView":8,
			"componentType":5123,
			"count":399,
			"type":"SCALAR"
		},
		{
			"bufferView":9,
			"componentType":5126,
			"count":31,
			"max":[
				-9.313225746154785e-10,
				9.47838306427002,
				1.5164084434509277
			],
			"min":[
				-3.490182399749756,
				6.085986137390137,
				-2.607229232788086
			],
			"type":"VEC3"
		},
		{
			"bufferView":10,
			"componentType":5126,
			"count":31,
			"type":"VEC3"
		},
		{
			"bufferView":11,
			"componentType":5123,
			"count":159,
			"type":"SCALAR"
		},
		{
			"bufferView":12,
			"componentType":5126,
			"count":925,
			"max":[
				1.987131953239441,
				6.938776969909668,
				8.842804908752441
			],
			"min":[
				-1.987131953239441,
				-0.8956908583641052,
				4.433651924133301
			],
			"type":"VEC3"
		},
		{
			"bufferView":13,
			"componentType":5126,
			"count":925,
			"type":"VEC2"
		},
		{
			"bufferView":14,
			"componentType":5126,
			"count":925,
			"type":"VEC3"
		},
		{
			"bufferView":15,
			"componentType":5123,
			"count":1740,
			"type":"SCALAR"
		},
		{
			"bufferView":16,
			"componentType":5126,
			"count":560,
			"max":[
				2.105661392211914,
				6.859882354736328,
				6.708061695098877
			],
			"min":[
				-2.105661392211914,
				6.094578266143799,
				5.911725997924805
			],
			"type":"VEC3"
		},
		{
			"bufferView":17,
			"componentType":5126,
			"count":560,
			"type":"VEC2"
		},
		{
			"bufferView":18,
			"componentType":5126,
			"count":560,
			"type":"VEC3"
		},
		{
			"bufferView":19,
			"componentType":5123,
			"count":1044,
			"type":"SCALAR"
		},
		{
			"bufferView":20,
			"componentType":5126,
			"count":416,
			"max":[
				4.163325309753418,
				5.962179660797119,
				7.990560054779053
			],
			"min":[
				-4.163325309753418,
				-1.9073486328125e-06,
				-4.228457450866699
			],
			"type":"VEC3"
		},
		{
			"bufferView":21,
			"componentType":5126,
			"count":416,
			"type":"VEC2"
		},
		{
			"bufferView":22,
			"componentType":5126,
			"count":416,
			"type":"VEC3"
		},
		{
			"bufferView":23,
			"componentType":5123,
			"count":732,
			"type":"SCALAR"
		},
		{
			"bufferView":24,
			"componentType":5126,
			"count":1881,
			"max":[
				3.7135074138641357,
				9.675677299499512,
				7.956517696380615
			],
			"min":[
				-3.7135074138641357,
				-4.8366594314575195,
				-4.228457450866699
			],
			"type":"VEC3"
		},
		{
			"bufferView":25,
			"componentType":5126,
			"count":1881,
			"type":"VEC2"
		},
		{
			"bufferView":26,
			"componentType":5126,
			"count":1881,
			"type":"VEC3"
		},
		{
			"bufferView":27,
			"componentType":5123,
			"count":3396,
			"type":"SCALAR"
		},
		{
			"bufferView":28,
			"componentType":5126,
			"count":434,
			"max":[
				1.3891087770462036,
				8.511602800354012e-08,
				7.522433280944824
			],
			"min":[
				-1.3891087770462036,
				-2.5105557441711426,
				4.426732063293457
			],
			"type":"VEC3"
		},
		{
			"bufferView":29,
			"componentType":5126,
			"count":434,
			"type":"VEC2"
		},
		{
			"bufferView":30,
			"componentType":5126,
			"count":434,
			"type":"VEC3"
		},
		{
			"bufferView":31,
			"componentType":5123,
			"count":864,
			"type":"SCALAR"
		},
		{
			"bufferView":32,
			"componentType":5126,
			"count":942,
			"max":[
				3.620532512664795,
				9.582704544067383,
				5.623570919036865
			],
			"min":[
				-3.620532512664795,
				5.955307483673096,
				-3.3361706733703613
			],
			"type":"VEC3"
		},
		{
			"bufferView":33,
			"componentType":5126,
			"count":942,
			"type":"VEC2"
		},
		{
			"bufferView":34,
			"componentType":5126,
			"count":942,
			"type":"VEC3"
		},
		{
			"bufferView":35,
			"componentType":5123,
			"count":1692,
			"type":"SCALAR"
		},
		{
			"bufferView":36,
			"componentType":5126,
			"count":23,
			"max":[
				3.5958971977233887,
				-0.14263486862182617,
				1.2997791998259345e-07
			],
			"min":[
				-3.5958971977233887,
				-4.683477878570557,
				-0.20828035473823547
			],
			"type":"VEC3"
		},
		{
			"bufferView":37,
			"componentType":5126,
			"count":23,
			"type":"VEC2"
		},
		{
			"bufferView":38,
			"componentType":5126,
			"count":23,
			"type":"VEC3"
		},
		{
			"bufferView":39,
			"componentType":5123,
			"count":90,
			"type":"SCALAR"
		},
		{
			"bufferView":40,
			"componentType":5126,
			"count":48,
			"max":[
				0.272782564163208,
				-1.6895554065704346,
				4.5247416496276855
			],
			"min":[
				-0.272782564163208,
				-2.235119581222534,
				2.1803946495056152
			],
			"type":"VEC3"
		},
		{
			"bufferView":41,
			"componentType":5126,
			"count":48,
			"type":"VEC2"
		},
		{
			"bufferView":42,
			"componentType":5126,
			"count":48,
			"type":"VEC3"
		},
		{
			"bufferView":43,
			"componentType":5123,
			"count":96,
			"type":"SCALAR"
		},
		{
			"bufferView":44,
			"componentType":5126,
			"count":16,
			"max":[
				-1.7549521923065186,
				1.3414461612701416,
				4.949481010437012
			],
			"min":[
				-2.6264569759368896,
				-0.06466066837310791,
				4.077975749969482
			],
			"type":"VEC3"
		},
		{
			"bufferView":45,
			"componentType":5126,
			"count":16,
			"type":"VEC2"
		},
		{
			"bufferView":46,
			"componentType":5126,
			"count":16,
			"type":"VEC3"
		},
		{
			"bufferView":47,
			"componentType":5123,
			"count":84,
			"type":"SCALAR"
		},
		{
			"bufferView":48,
			"componentType":5126,
			"count":16,
			"max":[
				2.6264569759368896,
				1.3414461612701416,
				4.949481010437012
			],
			"min":[
				1.7549521923065186,
				-0.06466066837310791,
				4.077975749969482
			],
			"type":"VEC3"
		},
		{
			"bufferView":49,
			"componentType":5126,
			"count":16,
			"type":"VEC2"
		},
		{
			"bufferView":50,
			"componentType":5126,
			"count":16,
			"type":"VEC3"
		},
		{
			"bufferView":51,
			"componentType":5123,
			"count":84,
			"type":"SCALAR"
		}
	],
	"bufferViews":[
		{
			"buffer":0,
			"byteLength":4644,
			"byteOffset":0,
			"target":34962
		},
		{
			"buffer":0,
			"byteLength":4644,
			"byteOffset":4644,
			"target":34962
		},
		{
			"buffer":0,
			"byteLength":4518,
			"byteOffset":9288,
			"target":34963
		},
		{
			"buffer":0,
			"byteLength":924,
			"byteOffset":13808,
			"target":34962
		},
		{
			"buffer":0,
			"byteLength":924,
			"byteOffset":14732,
			"target":34962
		},
		{
			"buffer":0,
			"byteLength":798,
			"byteOffset":15656,
			"target":34963
		},
		{
			"buffer":0,
			"byteLength":2040,
			"byteOffset":16456,
			"target":34962
		},
		{
			"buffer":0,
			"byteLength":2040,
			"byteOffset":18496,
			"target":34962
		},
		{
			"buffer":0,
			"byteLength":798,
			"byteOffset":20536,
			"target":34963
		},
		{
			"buffer":0,
			"byteLength":372,
			"byteOffset":21336,
			"target":34962
		},
		{
			"buffer":0,
			"byteLength":372,
			"byteOffset":21708,
			"target":34962
		},
		{
			"buffer":0,
			"byteLength":318,
			"byteOffset":22080,
			"target":34963
		},
		{
			"buffer":0,
			"byteLength":11100,
			"byteOffset":22400,
			"target":34962
		},
		{
			"buffer":0,
			"byteLength":7400,
			"byteOffset":33500,
			"target":34962
		},
		{
			"buffer":0,
			"byteLength":11100,
			"byteOffset":40900,
			"target":34962
		},
		{
			"buffer":0,
			"byteLength":3480,
			"byteOffset":52000,
			"target":34963
		},
		{
			"buffer":0,
			"byteLength":6720,
			"byteOffset":55480,
			"target":34962
		},
		{
			"buffer":0,
			"byteLength":4480,
			"byteOffset":62200,
			"target":34962
		},
		{
			"buffer":0,
			"byteLength":6720,
			"byteOffset":66680,
			"target":34962
		},
		{
			"buffer":0,
			"byteLength":2088,
			"byteOffset":73400,
			"target":34963
		},
		{
			"buffer":0,
			"byteLength":4992,
			"byteOffset":75488,
			"target":34962
		},
		{
			"buffer":0,
			"byteLength":3328,
			"byteOffset":80480,
			"target":34962
		},
		{
			"buffer":0,
			"byteLength":4992,
			"byteOffset":83808,
			"target":34962
		},
		{
			"buffer":0,
			"byteLength":1464,
			"byteOffset":88800,
			"target":34963
		},
		{
			"buffer":0,
			"byteLength":22572,
			"byteOffset":90264,
			"target":34962
		},
		{
			"buffer":0,
			"byteLength":15048,
			"byteOffset":112836,
			"target":34962
		},
		{
			"buffer":0,
			"byteLength":22572,
			"byteOffset":127884,
			"target":34962
		},
		{
			"buffer":0,
			"byteLength":6792,
			"byteOffset":150456,
			"target":34963
		},
		{
			"buffer":0,
			"byteLength":5208,
			"byteOffset":157248,
			"target":34962
		},
		{
			"buffer":0,
			"byteLength":3472,
			"byteOffset":162456,
			"target":34962
		},
		{
			"buffer":0,
			"byteLength":5208,
			"byteOffset":165928,
			"target":34962
		},
		{
			"buffer":0,
			"byteLength":1728,
			"byteOffset":171136,
			"target":34963
		},
		{
			"buffer":0,
			"byteLength":11304,
			"byteOffset":172864,
			"target":34962
		},
		{
			"buffer":0,
			"byteLength":7536,
			"byteOffset":184168,
			"target":34962
		},
		{
			"buffer":0,
			"byteLength":11304,
			"byteOffset":191704,
			"target":34962
		},
		{
			"buffer":0,
			"byteLength":3384,
			"byteOffset":203008,
			"target":34963
		},
		{
			"buffer":0,
			"byteLength":276,
			"byteOffset":206392,
			"target":34962
		},
		{
			"buffer":0,
			"byteLength":184,
			"byteOffset":206668,
			"target":34962
		},
		{
			"buffer":0,
			"byteLength":276,
			"byteOffset":206852,
			"target":34962
		},
		{
			"buffer":0,
			"byteLength":180,
			"byteOffset":207128,
			"target":34963
		},
		{
			"buffer":0,
			"byteLength":576,
			"byteOffset":207308,
			"target":34962
		},
		{
			"buffer":0,
			"byteLength":384,
			"byteOffset":207884,
			"target":34962
		},
		{
			"buffer":0,
			"byteLength":576,
			"byteOffset":208268,
			"target":34962
		},
		{
			"buffer":0,
			"byteLength":192,
			"byteOffset":208844,
			"target":34963
		},
		{
			"buffer":0,
			"byteLength":192,
			"byteOffset":209036,
			"target":34962
		},
		{
			"buffer":0,
			"byteLength":128,
			"byteOffset":209228,
			"target":34962
		},
		{
			"buffer":0,
			"byteLength":192,
			"byteOffset":209356,
			"target":34962
		},
		{
			"buffer":0,
			"byteLength":168,
			"byteOffset":209548,
			"target":34963
		},
		{
			"buffer":0,
			"byteLength":192,
			"byteOffset":209716,
			"target":34962
		},
		{
			"buffer":0,
			"byteLength":128,
			"byteOffset":209908,
			"target":34962
		},
		{
			"buffer":0,
			"byteLength":192,
			"byteOffset":210036,
			"target":34962
		},
		{
			"buffer":0,
			"byteLength":168,
			"byteOffset":210228,
			"target":34963
		}
	],
	"buffers":[
		{
			"byteLength":210396,
			"uri":"MAQUINA.bin"
		}
	]
}
