{
	"asset":{
		"generator":"Khronos glTF Blender I/O v3.5.30",
		"version":"2.0"
	},
	"scene":0,
	"scenes":[
		{
			"name":"Scene",
			"nodes":[
				0
			]
		}
	],
	"nodes":[
		{
			"mesh":0,
			"name":"Coffee Brewer",
			"rotation":[
				0,
				-0.3502073585987091,
				0,
				0.9366722106933594
			],
			"scale":[
				0.02539999969303608,
				0.02539999969303608,
				0.02539999969303608
			]
		}
	],
	"materials":[
		{
			"doubleSided":true,
			"name":"Glass",
			"pbrMetallicRoughness":{}
		},
		{
			"doubleSided":true,
			"name":"Metal",
			"pbrMetallicRoughness":{}
		},
		{
			"doubleSided":true,
			"name":"Plastic A",
			"pbrMetallicRoughness":{}
		},
		{
			"doubleSided":true,
			"name":"Plastic B",
			"pbrMetallicRoughness":{}
		}
	],
	"meshes":[
		{
			"name":"ID847",
			"primitives":[
				{
					"attributes":{
						"POSITION":0,
						"NORMAL":1
					},
					"indices":2,
					"material":0
				},
				{
					"attributes":{
						"POSITION":3,
						"NORMAL":4
					},
					"indices":5,
					"material":1
				},
				{
					"attributes":{
						"POSITION":6,
						"NORMAL":7
					},
					"indices":8,
					"material":2
				},
				{
					"attributes":{
						"POSITION":9,
						"NORMAL":10
					},
					"indices":11,
					"material":3
				}
			]
		}
	],
	"accessors":[
		{
			"bufferView":0,
			"componentType":5126,
			"count":2452,
			"max":[
				2.016099452972412,
				10.588974952697754,
				5.286769866943359
			],
			"min":[
				-1.9209084510803223,
				1.1820449829101562,
				-6.289637565612793
			],
			"type":"VEC3"
		},
		{
			"bufferView":1,
			"componentType":5126,
			"count":2452,
			"type":"VEC3"
		},
		{
			"bufferView":2,
			"componentType":5123,
			"count":6225,
			"type":"SCALAR"
		},
		{
			"bufferView":3,
			"componentType":5126,
			"count":16072,
			"max":[
				2.689084053039551,
				10.589587211608887,
				7.686738967895508
			],
			"min":[
				-2.511460781097412,
				6.572650410041625e-15,
				-4.557354927062988
			],
			"type":"VEC3"
		},
		{
			"bufferView":4,
			"componentType":5126,
			"count":16072,
			"type":"VEC3"
		},
		{
			"bufferView":5,
			"componentType":5123,
			"count":47988,
			"type":"SCALAR"
		},
		{
			"bufferView":6,
			"componentType":5126,
			"count":6984,
			"max":[
				2.7508835792541504,
				10.692097663879395,
				8.277290344238281
			],
			"min":[
				-2.511460781097412,
				-9.455546155084926e-13,
				-6.881888389587402
			],
			"type":"VEC3"
		},
		{
			"bufferView":7,
			"componentType":5126,
			"count":6984,
			"type":"VEC3"
		},
		{
			"bufferView":8,
			"componentType":5123,
			"count":21114,
			"type":"SCALAR"
		},
		{
			"bufferView":9,
			"componentType":5126,
			"count":1446,
			"max":[
				2.0160980224609375,
				10.198188781738281,
				3.9465813636779785
			],
			"min":[
				-1.9209084510803223,
				1.5748029947280884,
				-3.14003324508667
			],
			"type":"VEC3"
		},
		{
			"bufferView":10,
			"componentType":5126,
			"count":1446,
			"type":"VEC3"
		},
		{
			"bufferView":11,
			"componentType":5123,
			"count":7770,
			"type":"SCALAR"
		}
	],
	"bufferViews":[
		{
			"buffer":0,
			"byteLength":29424,
			"byteOffset":0,
			"target":34962
		},
		{
			"buffer":0,
			"byteLength":29424,
			"byteOffset":29424,
			"target":34962
		},
		{
			"buffer":0,
			"byteLength":12450,
			"byteOffset":58848,
			"target":34963
		},
		{
			"buffer":0,
			"byteLength":192864,
			"byteOffset":71300,
			"target":34962
		},
		{
			"buffer":0,
			"byteLength":192864,
			"byteOffset":264164,
			"target":34962
		},
		{
			"buffer":0,
			"byteLength":95976,
			"byteOffset":457028,
			"target":34963
		},
		{
			"buffer":0,
			"byteLength":83808,
			"byteOffset":553004,
			"target":34962
		},
		{
			"buffer":0,
			"byteLength":83808,
			"byteOffset":636812,
			"target":34962
		},
		{
			"buffer":0,
			"byteLength":42228,
			"byteOffset":720620,
			"target":34963
		},
		{
			"buffer":0,
			"byteLength":17352,
			"byteOffset":762848,
			"target":34962
		},
		{
			"buffer":0,
			"byteLength":17352,
			"byteOffset":780200,
			"target":34962
		},
		{
			"buffer":0,
			"byteLength":15540,
			"byteOffset":797552,
			"target":34963
		}
	],
	"buffers":[
		{
			"byteLength":813092,
			"uri":"Coffee_Brewer.bin"
		}
	]
}
