{
	"asset":{
		"generator":"Khronos glTF Blender I/O v3.5.30",
		"version":"2.0"
	},
	"scene":0,
	"scenes":[
		{
			"name":"Scene",
			"nodes":[
				0,
				6,
				8,
				9
			]
		}
	],
	"nodes":[
		{
			"name":"Cable.hook.002",
			"rotation":[
				0,
				0.1836593896150589,
				0,
				0.9829899668693542
			],
			"scale":[
				-0.02474956586956978,
				-0.02474956214427948,
				-0.02474956586956978
			],
			"translation":[
				0.17710453271865845,
				0.019039925187826157,
				-0.15854661166667938
			]
		},
		{
			"name":"Cable.hook.003",
			"rotation":[
				0,
				-0.7071068286895752,
				0,
				0.7071068286895752
			],
			"scale":[
				-0.02663131058216095,
				-0.02414260245859623,
				-0.026595614850521088
			],
			"translation":[
				0.2572493255138397,
				-0.23373247683048248,
				0.014327717013657093
			]
		},
		{
			"name":"Cable.hook.004",
			"rotation":[
				0,
				-0.7071068286895752,
				0,
				0.7071068286895752
			],
			"scale":[
				-0.02663131058216095,
				-0.02414260245859623,
				-0.026595614850521088
			],
			"translation":[
				0.12126447260379791,
				-0.23373247683048248,
				0.004320194479078054
			]
		},
		{
			"mesh":0,
			"name":"Coffeemaker.Can",
			"rotation":[
				0,
				-0.8521839380264282,
				0,
				0.5232424736022949
			],
			"scale":[
				1.796787977218628,
				1.6293240785598755,
				1.7953650951385498
			],
			"translation":[
				-0.0001371542166452855,
				-0.16738271713256836,
				1.1857455319841392e-05
			]
		},
		{
			"mesh":1,
			"name":"Coffeemaker.Pipe",
			"scale":[
				1.7948716878890991,
				1.6293240785598755,
				1.7972807884216309
			],
			"translation":[
				-0.0005406925920397043,
				0.15719977021217346,
				1.2500516277214047e-05
			]
		},
		{
			"mesh":2,
			"name":"Coffeemaker.Tank",
			"scale":[
				1.7948716878890991,
				1.6293240785598755,
				1.7972807884216309
			],
			"translation":[
				-0.0001371542166452855,
				0.27534422278404236,
				1.1857455319841392e-05
			]
		},
		{
			"children":[
				1,
				2,
				3,
				4,
				5
			],
			"mesh":3,
			"name":"Coffeemaker",
			"rotation":[
				0,
				0.7071068286895752,
				0,
				0.7071068286895752
			],
			"scale":[
				0.5571429133415222,
				0.6137514710426331,
				0.5563961267471313
			],
			"translation":[
				0.002635437995195389,
				0.16249357163906097,
				0.013606429100036621
			]
		},
		{
			"name":"Cable.hook.001",
			"scale":[
				-0.014817557297647,
				-0.014817557297647,
				-0.014817558228969574
			],
			"translation":[
				0.018899274989962578,
				4.604458808898926e-05,
				0.025094786658883095
			]
		},
		{
			"children":[
				7
			],
			"mesh":4,
			"name":"Coffeemaker.Plug",
			"rotation":[
				0.11205140501260757,
				-0.20130610466003418,
				-0.19778895378112793,
				0.952785313129425
			],
			"translation":[
				0.2831169068813324,
				0.020018577575683594,
				-0.34017178416252136
			]
		},
		{
			"mesh":5,
			"name":"Coffeemaker.Cable",
			"translation":[
				0.12841278314590454,
				0.019039925187826157,
				-0.16449928283691406
			]
		}
	],
	"materials":[
		{
			"doubleSided":true,
			"name":"Glass.common",
			"pbrMetallicRoughness":{}
		},
		{
			"doubleSided":true,
			"name":"Metal.chrome",
			"pbrMetallicRoughness":{
				"baseColorFactor":[
					0.5583405494689941,
					0.5711250305175781,
					0.5775805115699768,
					1
				],
				"roughnessFactor":0.05000000074505806
			}
		},
		{
			"doubleSided":true,
			"name":"Coffeemachine.can.label",
			"pbrMetallicRoughness":{
				"metallicFactor":0,
				"roughnessFactor":0.20000000298023224
			}
		},
		{
			"doubleSided":true,
			"name":"Plastic.black",
			"pbrMetallicRoughness":{
				"baseColorFactor":[
					0.005181519314646721,
					0.005181519314646721,
					0.005181519314646721,
					1
				],
				"metallicFactor":0,
				"roughnessFactor":0.18000000715255737
			}
		},
		{
			"doubleSided":true,
			"name":"Coffeemaker.grip",
			"pbrMetallicRoughness":{
				"baseColorFactor":[
					0.005181519314646721,
					0.005181519314646721,
					0.005181519314646721,
					1
				],
				"metallicFactor":0,
				"roughnessFactor":0.18000000715255737
			}
		},
		{
			"doubleSided":true,
			"name":"Coffeemaker.tank.label",
			"pbrMetallicRoughness":{
				"metallicFactor":0,
				"roughnessFactor":0.20000000298023224
			}
		},
		{
			"doubleSided":true,
			"name":"Plastik.rough.black",
			"pbrMetallicRoughness":{}
		},
		{
			"doubleSided":true,
			"name":"Metal.rough",
			"pbrMetallicRoughness":{
				"baseColorFactor":[
					0.5583405494689941,
					0.5711250305175781,
					0.5775805115699768,
					1
				],
				"roughnessFactor":0.6000000238418579
			}
		},
		{
			"doubleSided":true,
			"name":"Glass.red",
			"pbrMetallicRoughness":{}
		},
		{
			"doubleSided":true,
			"name":"Coffeemaker.logo",
			"pbrMetallicRoughness":{}
		},
		{
			"doubleSided":true,
			"name":"Coffeemaker.name",
			"pbrMetallicRoughness":{}
		},
		{
			"doubleSided":true,
			"name":"Plastic.black.matte",
			"pbrMetallicRoughness":{
				"baseColorFactor":[
					0.006048835348337889,
					0.006048835348337889,
					0.006048835348337889,
					1
				],
				"metallicFactor":0,
				"roughnessFactor":0.5
			}
		}
	],
	"meshes":[
		{
			"name":"Circle.037",
			"primitives":[
				{
					"attributes":{
						"POSITION":0,
						"TEXCOORD_0":1,
						"NORMAL":2
					},
					"indices":3,
					"material":0
				},
				{
					"attributes":{
						"POSITION":4,
						"TEXCOORD_0":5,
						"NORMAL":6
					},
					"indices":7,
					"material":1
				},
				{
					"attributes":{
						"POSITION":8,
						"TEXCOORD_0":9,
						"NORMAL":10
					},
					"indices":11,
					"material":2
				},
				{
					"attributes":{
						"POSITION":12,
						"TEXCOORD_0":13,
						"NORMAL":14
					},
					"indices":15,
					"material":3
				},
				{
					"attributes":{
						"POSITION":16,
						"TEXCOORD_0":17,
						"NORMAL":18
					},
					"indices":19,
					"material":4
				}
			]
		},
		{
			"name":"NurbsPath.022",
			"primitives":[
				{
					"attributes":{
						"POSITION":20,
						"TEXCOORD_0":21,
						"NORMAL":22
					},
					"indices":23,
					"material":1
				}
			]
		},
		{
			"name":"Circle.028",
			"primitives":[
				{
					"attributes":{
						"POSITION":24,
						"TEXCOORD_0":25,
						"NORMAL":26
					},
					"indices":27,
					"material":0
				},
				{
					"attributes":{
						"POSITION":28,
						"TEXCOORD_0":29,
						"NORMAL":30
					},
					"indices":31,
					"material":5
				}
			]
		},
		{
			"name":"Circle.025",
			"primitives":[
				{
					"attributes":{
						"POSITION":32,
						"TEXCOORD_0":33,
						"NORMAL":34
					},
					"indices":35,
					"material":6
				},
				{
					"attributes":{
						"POSITION":36,
						"TEXCOORD_0":37,
						"NORMAL":38
					},
					"indices":39,
					"material":3
				},
				{
					"attributes":{
						"POSITION":40,
						"TEXCOORD_0":41,
						"NORMAL":42
					},
					"indices":43,
					"material":7
				},
				{
					"attributes":{
						"POSITION":44,
						"TEXCOORD_0":45,
						"NORMAL":46
					},
					"indices":47,
					"material":8
				},
				{
					"attributes":{
						"POSITION":48,
						"TEXCOORD_0":49,
						"NORMAL":50
					},
					"indices":51,
					"material":9
				},
				{
					"attributes":{
						"POSITION":52,
						"TEXCOORD_0":53,
						"NORMAL":54
					},
					"indices":55,
					"material":10
				}
			]
		},
		{
			"name":"Plane.112",
			"primitives":[
				{
					"attributes":{
						"POSITION":56,
						"NORMAL":57
					},
					"indices":58,
					"material":3
				},
				{
					"attributes":{
						"POSITION":59,
						"NORMAL":60
					},
					"indices":61,
					"material":1
				}
			]
		},
		{
			"name":"BezierCurve",
			"primitives":[
				{
					"attributes":{
						"POSITION":62,
						"TEXCOORD_0":63,
						"NORMAL":64
					},
					"indices":65,
					"material":11
				}
			]
		}
	],
	"accessors":[
		{
			"bufferView":0,
			"componentType":5126,
			"count":1179,
			"max":[
				0.07470592111349106,
				0.06471992284059525,
				0.07434794306755066
			],
			"min":[
				-0.0872943103313446,
				-0.01695401221513748,
				-0.07434796541929245
			],
			"type":"VEC3"
		},
		{
			"bufferView":1,
			"componentType":5126,
			"count":1179,
			"type":"VEC2"
		},
		{
			"bufferView":2,
			"componentType":5126,
			"count":1179,
			"type":"VEC3"
		},
		{
			"bufferView":3,
			"componentType":5123,
			"count":6762,
			"type":"SCALAR"
		},
		{
			"bufferView":4,
			"componentType":5126,
			"count":224,
			"max":[
				0.07469365745782852,
				0.002425386803224683,
				0.07433661818504333
			],
			"min":[
				-0.07469525188207626,
				-0.003303089179098606,
				-0.07433649152517319
			],
			"type":"VEC3"
		},
		{
			"bufferView":5,
			"componentType":5126,
			"count":224,
			"type":"VEC2"
		},
		{
			"bufferView":6,
			"componentType":5126,
			"count":224,
			"type":"VEC3"
		},
		{
			"bufferView":7,
			"componentType":5123,
			"count":1344,
			"type":"SCALAR"
		},
		{
			"bufferView":8,
			"componentType":5126,
			"count":32,
			"max":[
				0.07216444611549377,
				0.05172698199748993,
				0.07434794306755066
			],
			"min":[
				-0.027939319610595703,
				0.004429223015904427,
				0.019382139667868614
			],
			"type":"VEC3"
		},
		{
			"bufferView":9,
			"componentType":5126,
			"count":32,
			"type":"VEC2"
		},
		{
			"bufferView":10,
			"componentType":5126,
			"count":32,
			"type":"VEC3"
		},
		{
			"bufferView":11,
			"componentType":5123,
			"count":126,
			"type":"SCALAR"
		},
		{
			"bufferView":12,
			"componentType":5126,
			"count":1366,
			"max":[
				0.11948134005069733,
				0.07574430108070374,
				0.06904087960720062
			],
			"min":[
				-0.063103087246418,
				-0.008435491472482681,
				-0.06935413181781769
			],
			"type":"VEC3"
		},
		{
			"bufferView":13,
			"componentType":5126,
			"count":1366,
			"type":"VEC2"
		},
		{
			"bufferView":14,
			"componentType":5126,
			"count":1366,
			"type":"VEC3"
		},
		{
			"bufferView":15,
			"componentType":5123,
			"count":7752,
			"type":"SCALAR"
		},
		{
			"bufferView":16,
			"componentType":5126,
			"count":48,
			"max":[
				0.11948078870773315,
				0.06922393292188644,
				0.005443875677883625
			],
			"min":[
				0.10285061597824097,
				-9.543076157569885e-05,
				-0.010727939195930958
			],
			"type":"VEC3"
		},
		{
			"bufferView":17,
			"componentType":5126,
			"count":48,
			"type":"VEC2"
		},
		{
			"bufferView":18,
			"componentType":5126,
			"count":48,
			"type":"VEC3"
		},
		{
			"bufferView":19,
			"componentType":5123,
			"count":210,
			"type":"SCALAR"
		},
		{
			"bufferView":20,
			"componentType":5126,
			"count":2520,
			"max":[
				0.00684209493920207,
				0.24091151356697083,
				0.09758137911558151
			],
			"min":[
				-0.006842067465186119,
				-0.23536920547485352,
				-0.09758137166500092
			],
			"type":"VEC3"
		},
		{
			"bufferView":21,
			"componentType":5126,
			"count":2520,
			"type":"VEC2"
		},
		{
			"bufferView":22,
			"componentType":5126,
			"count":2520,
			"type":"VEC3"
		},
		{
			"bufferView":23,
			"componentType":5123,
			"count":14280,
			"type":"SCALAR"
		},
		{
			"bufferView":24,
			"componentType":5126,
			"count":728,
			"max":[
				0.07470592856407166,
				0.06417986750602722,
				0.07434795051813126
			],
			"min":[
				-0.07470589876174927,
				-0.01695401221513748,
				-0.07434797286987305
			],
			"type":"VEC3"
		},
		{
			"bufferView":25,
			"componentType":5126,
			"count":728,
			"type":"VEC2"
		},
		{
			"bufferView":26,
			"componentType":5126,
			"count":728,
			"type":"VEC3"
		},
		{
			"bufferView":27,
			"componentType":5123,
			"count":4296,
			"type":"SCALAR"
		},
		{
			"bufferView":28,
			"componentType":5126,
			"count":20,
			"max":[
				-0.06542900204658508,
				0.05172698199748993,
				0.03334609046578407
			],
			"min":[
				-0.07470590621232986,
				-0.008093897253274918,
				-0.036089085042476654
			],
			"type":"VEC3"
		},
		{
			"bufferView":29,
			"componentType":5126,
			"count":20,
			"type":"VEC2"
		},
		{
			"bufferView":30,
			"componentType":5126,
			"count":20,
			"type":"VEC3"
		},
		{
			"bufferView":31,
			"componentType":5123,
			"count":72,
			"type":"SCALAR"
		},
		{
			"bufferView":32,
			"componentType":5126,
			"count":4111,
			"max":[
				0.17486229538917542,
				0.41696813702583313,
				0.1878611445426941
			],
			"min":[
				-0.17241959273815155,
				-0.26363110542297363,
				-0.18783658742904663
			],
			"type":"VEC3"
		},
		{
			"bufferView":33,
			"componentType":5126,
			"count":4111,
			"type":"VEC2"
		},
		{
			"bufferView":34,
			"componentType":5126,
			"count":4111,
			"type":"VEC3"
		},
		{
			"bufferView":35,
			"componentType":5123,
			"count":22827,
			"type":"SCALAR"
		},
		{
			"bufferView":36,
			"componentType":5126,
			"count":157,
			"max":[
				0.016371622681617737,
				0.3834267854690552,
				0.016463443636894226
			],
			"min":[
				-0.016646146774291992,
				0.21696747839450836,
				-0.016440242528915405
			],
			"type":"VEC3"
		},
		{
			"bufferView":37,
			"componentType":5126,
			"count":157,
			"type":"VEC2"
		},
		{
			"bufferView":38,
			"componentType":5126,
			"count":157,
			"type":"VEC3"
		},
		{
			"bufferView":39,
			"componentType":5123,
			"count":858,
			"type":"SCALAR"
		},
		{
			"bufferView":40,
			"componentType":5126,
			"count":205,
			"max":[
				0.12093766033649445,
				0.25283002853393555,
				0.12066808342933655
			],
			"min":[
				-0.1212121769785881,
				-0.19845813512802124,
				-0.12064489722251892
			],
			"type":"VEC3"
		},
		{
			"bufferView":41,
			"componentType":5126,
			"count":205,
			"type":"VEC2"
		},
		{
			"bufferView":42,
			"componentType":5126,
			"count":205,
			"type":"VEC3"
		},
		{
			"bufferView":43,
			"componentType":5123,
			"count":996,
			"type":"SCALAR"
		},
		{
			"bufferView":44,
			"componentType":5126,
			"count":24,
			"max":[
				-0.16563577950000763,
				-0.2279217541217804,
				0.014095333404839039
			],
			"min":[
				-0.17055094242095947,
				-0.23514263331890106,
				0.00642318744212389
			],
			"type":"VEC3"
		},
		{
			"bufferView":45,
			"componentType":5126,
			"count":24,
			"type":"VEC2"
		},
		{
			"bufferView":46,
			"componentType":5126,
			"count":24,
			"type":"VEC3"
		},
		{
			"bufferView":47,
			"componentType":5123,
			"count":114,
			"type":"SCALAR"
		},
		{
			"bufferView":48,
			"componentType":5126,
			"count":12,
			"max":[
				-0.11671723425388336,
				0.20296922326087952,
				0.03490006923675537
			],
			"min":[
				-0.1347522735595703,
				0.15587198734283447,
				-0.0673857182264328
			],
			"type":"VEC3"
		},
		{
			"bufferView":49,
			"componentType":5126,
			"count":12,
			"type":"VEC2"
		},
		{
			"bufferView":50,
			"componentType":5126,
			"count":12,
			"type":"VEC3"
		},
		{
			"bufferView":51,
			"componentType":5123,
			"count":36,
			"type":"SCALAR"
		},
		{
			"bufferView":52,
			"componentType":5126,
			"count":8,
			"max":[
				-0.11671770364046097,
				0.1503237783908844,
				0.034900061786174774
			],
			"min":[
				-0.13475273549556732,
				0.10398992896080017,
				-0.0673857182264328
			],
			"type":"VEC3"
		},
		{
			"bufferView":53,
			"componentType":5126,
			"count":8,
			"type":"VEC2"
		},
		{
			"bufferView":54,
			"componentType":5126,
			"count":8,
			"type":"VEC3"
		},
		{
			"bufferView":55,
			"componentType":5123,
			"count":18,
			"type":"SCALAR"
		},
		{
			"bufferView":56,
			"componentType":5126,
			"count":384,
			"max":[
				0.02477574348449707,
				0.02109815739095211,
				0.033362314105033875
			],
			"min":[
				-0.009879176504909992,
				-0.021075895056128502,
				-0.021200625225901604
			],
			"type":"VEC3"
		},
		{
			"bufferView":57,
			"componentType":5126,
			"count":384,
			"type":"VEC3"
		},
		{
			"bufferView":58,
			"componentType":5123,
			"count":2211,
			"type":"SCALAR"
		},
		{
			"bufferView":59,
			"componentType":5126,
			"count":80,
			"max":[
				-0.00987917184829712,
				0.015043869614601135,
				0.0021610157564282417
			],
			"min":[
				-0.026667635887861252,
				-0.01495429128408432,
				-0.0026439866051077843
			],
			"type":"VEC3"
		},
		{
			"bufferView":60,
			"componentType":5126,
			"count":80,
			"type":"VEC3"
		},
		{
			"bufferView":61,
			"componentType":5123,
			"count":420,
			"type":"SCALAR"
		},
		{
			"bufferView":62,
			"componentType":5126,
			"count":407,
			"max":[
				0.05657103657722473,
				0.002996088471263647,
				0.11056949198246002
			],
			"min":[
				-0.13380736112594604,
				-0.002855098806321621,
				-0.049683235585689545
			],
			"type":"VEC3"
		},
		{
			"bufferView":63,
			"componentType":5126,
			"count":407,
			"type":"VEC2"
		},
		{
			"bufferView":64,
			"componentType":5126,
			"count":407,
			"type":"VEC3"
		},
		{
			"bufferView":65,
			"componentType":5123,
			"count":2160,
			"type":"SCALAR"
		}
	],
	"bufferViews":[
		{
			"buffer":0,
			"byteLength":14148,
			"byteOffset":0,
			"target":34962
		},
		{
			"buffer":0,
			"byteLength":9432,
			"byteOffset":14148,
			"target":34962
		},
		{
			"buffer":0,
			"byteLength":14148,
			"byteOffset":23580,
			"target":34962
		},
		{
			"buffer":0,
			"byteLength":13524,
			"byteOffset":37728,
			"target":34963
		},
		{
			"buffer":0,
			"byteLength":2688,
			"byteOffset":51252,
			"target":34962
		},
		{
			"buffer":0,
			"byteLength":1792,
			"byteOffset":53940,
			"target":34962
		},
		{
			"buffer":0,
			"byteLength":2688,
			"byteOffset":55732,
			"target":34962
		},
		{
			"buffer":0,
			"byteLength":2688,
			"byteOffset":58420,
			"target":34963
		},
		{
			"buffer":0,
			"byteLength":384,
			"byteOffset":61108,
			"target":34962
		},
		{
			"buffer":0,
			"byteLength":256,
			"byteOffset":61492,
			"target":34962
		},
		{
			"buffer":0,
			"byteLength":384,
			"byteOffset":61748,
			"target":34962
		},
		{
			"buffer":0,
			"byteLength":252,
			"byteOffset":62132,
			"target":34963
		},
		{
			"buffer":0,
			"byteLength":16392,
			"byteOffset":62384,
			"target":34962
		},
		{
			"buffer":0,
			"byteLength":10928,
			"byteOffset":78776,
			"target":34962
		},
		{
			"buffer":0,
			"byteLength":16392,
			"byteOffset":89704,
			"target":34962
		},
		{
			"buffer":0,
			"byteLength":15504,
			"byteOffset":106096,
			"target":34963
		},
		{
			"buffer":0,
			"byteLength":576,
			"byteOffset":121600,
			"target":34962
		},
		{
			"buffer":0,
			"byteLength":384,
			"byteOffset":122176,
			"target":34962
		},
		{
			"buffer":0,
			"byteLength":576,
			"byteOffset":122560,
			"target":34962
		},
		{
			"buffer":0,
			"byteLength":420,
			"byteOffset":123136,
			"target":34963
		},
		{
			"buffer":0,
			"byteLength":30240,
			"byteOffset":123556,
			"target":34962
		},
		{
			"buffer":0,
			"byteLength":20160,
			"byteOffset":153796,
			"target":34962
		},
		{
			"buffer":0,
			"byteLength":30240,
			"byteOffset":173956,
			"target":34962
		},
		{
			"buffer":0,
			"byteLength":28560,
			"byteOffset":204196,
			"target":34963
		},
		{
			"buffer":0,
			"byteLength":8736,
			"byteOffset":232756,
			"target":34962
		},
		{
			"buffer":0,
			"byteLength":5824,
			"byteOffset":241492,
			"target":34962
		},
		{
			"buffer":0,
			"byteLength":8736,
			"byteOffset":247316,
			"target":34962
		},
		{
			"buffer":0,
			"byteLength":8592,
			"byteOffset":256052,
			"target":34963
		},
		{
			"buffer":0,
			"byteLength":240,
			"byteOffset":264644,
			"target":34962
		},
		{
			"buffer":0,
			"byteLength":160,
			"byteOffset":264884,
			"target":34962
		},
		{
			"buffer":0,
			"byteLength":240,
			"byteOffset":265044,
			"target":34962
		},
		{
			"buffer":0,
			"byteLength":144,
			"byteOffset":265284,
			"target":34963
		},
		{
			"buffer":0,
			"byteLength":49332,
			"byteOffset":265428,
			"target":34962
		},
		{
			"buffer":0,
			"byteLength":32888,
			"byteOffset":314760,
			"target":34962
		},
		{
			"buffer":0,
			"byteLength":49332,
			"byteOffset":347648,
			"target":34962
		},
		{
			"buffer":0,
			"byteLength":45654,
			"byteOffset":396980,
			"target":34963
		},
		{
			"buffer":0,
			"byteLength":1884,
			"byteOffset":442636,
			"target":34962
		},
		{
			"buffer":0,
			"byteLength":1256,
			"byteOffset":444520,
			"target":34962
		},
		{
			"buffer":0,
			"byteLength":1884,
			"byteOffset":445776,
			"target":34962
		},
		{
			"buffer":0,
			"byteLength":1716,
			"byteOffset":447660,
			"target":34963
		},
		{
			"buffer":0,
			"byteLength":2460,
			"byteOffset":449376,
			"target":34962
		},
		{
			"buffer":0,
			"byteLength":1640,
			"byteOffset":451836,
			"target":34962
		},
		{
			"buffer":0,
			"byteLength":2460,
			"byteOffset":453476,
			"target":34962
		},
		{
			"buffer":0,
			"byteLength":1992,
			"byteOffset":455936,
			"target":34963
		},
		{
			"buffer":0,
			"byteLength":288,
			"byteOffset":457928,
			"target":34962
		},
		{
			"buffer":0,
			"byteLength":192,
			"byteOffset":458216,
			"target":34962
		},
		{
			"buffer":0,
			"byteLength":288,
			"byteOffset":458408,
			"target":34962
		},
		{
			"buffer":0,
			"byteLength":228,
			"byteOffset":458696,
			"target":34963
		},
		{
			"buffer":0,
			"byteLength":144,
			"byteOffset":458924,
			"target":34962
		},
		{
			"buffer":0,
			"byteLength":96,
			"byteOffset":459068,
			"target":34962
		},
		{
			"buffer":0,
			"byteLength":144,
			"byteOffset":459164,
			"target":34962
		},
		{
			"buffer":0,
			"byteLength":72,
			"byteOffset":459308,
			"target":34963
		},
		{
			"buffer":0,
			"byteLength":96,
			"byteOffset":459380,
			"target":34962
		},
		{
			"buffer":0,
			"byteLength":64,
			"byteOffset":459476,
			"target":34962
		},
		{
			"buffer":0,
			"byteLength":96,
			"byteOffset":459540,
			"target":34962
		},
		{
			"buffer":0,
			"byteLength":36,
			"byteOffset":459636,
			"target":34963
		},
		{
			"buffer":0,
			"byteLength":4608,
			"byteOffset":459672,
			"target":34962
		},
		{
			"buffer":0,
			"byteLength":4608,
			"byteOffset":464280,
			"target":34962
		},
		{
			"buffer":0,
			"byteLength":4422,
			"byteOffset":468888,
			"target":34963
		},
		{
			"buffer":0,
			"byteLength":960,
			"byteOffset":473312,
			"target":34962
		},
		{
			"buffer":0,
			"byteLength":960,
			"byteOffset":474272,
			"target":34962
		},
		{
			"buffer":0,
			"byteLength":840,
			"byteOffset":475232,
			"target":34963
		},
		{
			"buffer":0,
			"byteLength":4884,
			"byteOffset":476072,
			"target":34962
		},
		{
			"buffer":0,
			"byteLength":3256,
			"byteOffset":480956,
			"target":34962
		},
		{
			"buffer":0,
			"byteLength":4884,
			"byteOffset":484212,
			"target":34962
		},
		{
			"buffer":0,
			"byteLength":4320,
			"byteOffset":489096,
			"target":34963
		}
	],
	"buffers":[
		{
			"byteLength":493416,
			"uri":"coffe-maker.bin"
		}
	]
}
