{
	"asset":{
		"generator":"Khronos glTF Blender I/O v3.5.30",
		"version":"2.0"
	},
	"scene":0,
	"scenes":[
		{
			"name":"Scene",
			"nodes":[
				3
			]
		}
	],
	"nodes":[
		{
			"mesh":0,
			"name":"filtro.001",
			"rotation":[
				0.6743797063827515,
				0.21263113617897034,
				-0.21263112127780914,
				0.6743797659873962
			],
			"scale":[
				0.0055455975234508514,
				0.0055455975234508514,
				0.0055455975234508514
			]
		},
		{
			"mesh":1,
			"name":"partes.001"
		},
		{
			"mesh":2,
			"name":"plastico.001",
			"rotation":[
				0.03869086876511574,
				-0.020141176879405975,
				0.5367883443832397,
				0.8425887823104858
			],
			"scale":[
				0.0032318206503987312,
				0.0032318211160600185,
				0.0032318211160600185
			]
		},
		{
			"children":[
				0,
				1,
				2
			],
			"mesh":3,
			"name":"francis_x1.001",
			"translation":[
				0.0007021650671958923,
				0.23883849382400513,
				-0.008002381771802902
			]
		}
	],
	"materials":[
		{
			"doubleSided":true,
			"name":"coifa_metal",
			"pbrMetallicRoughness":{
				"baseColorFactor":[
					1,
					1,
					1,
					1
				],
				"metallicFactor":0,
				"roughnessFactor":0.5
			}
		},
		{
			"doubleSided":true,
			"name":"preto-fosco",
			"pbrMetallicRoughness":{
				"baseColorFactor":[
					0.29019609093666077,
					0.29019609093666077,
					0.29019609093666077,
					1
				],
				"metallicFactor":0,
				"roughnessFactor":0.5
			}
		},
		{
			"doubleSided":true,
			"name":"Chrome",
			"pbrMetallicRoughness":{
				"baseColorFactor":[
					0.6000000238418579,
					0.6000000238418579,
					0.5,
					1
				],
				"metallicFactor":0,
				"roughnessFactor":0.5
			}
		},
		{
			"doubleSided":true,
			"name":"verde_led",
			"pbrMetallicRoughness":{
				"baseColorFactor":[
					0.5247249007225037,
					0.8950334787368774,
					0.06801095604896545,
					1
				],
				"metallicFactor":0,
				"roughnessFactor":0.5
			}
		},
		{
			"doubleSided":true,
			"name":"led_branco",
			"pbrMetallicRoughness":{
				"baseColorFactor":[
					1,
					1,
					1,
					1
				],
				"metallicFactor":0,
				"roughnessFactor":0.5
			}
		},
		{
			"doubleSided":true,
			"name":"button",
			"pbrMetallicRoughness":{
				"baseColorFactor":[
					0.7626062035560608,
					0.687818706035614,
					0.5507082343101501,
					1
				],
				"metallicFactor":0,
				"roughnessFactor":0.5
			}
		},
		{
			"doubleSided":true,
			"name":"ikea_red",
			"pbrMetallicRoughness":{
				"baseColorFactor":[
					0.686274528503418,
					0.09019608050584793,
					0.039215683937072754,
					1
				],
				"metallicFactor":0,
				"roughnessFactor":0.5
			}
		},
		{
			"doubleSided":true,
			"name":"ikea_green",
			"pbrMetallicRoughness":{
				"baseColorFactor":[
					0.4862745404243469,
					0.800000011920929,
					0.35686275362968445,
					1
				],
				"metallicFactor":0,
				"roughnessFactor":0.5
			}
		},
		{
			"doubleSided":true,
			"name":"ikea_blue",
			"pbrMetallicRoughness":{
				"baseColorFactor":[
					0,
					0.3529411852359772,
					0.7568627595901489,
					1
				],
				"metallicFactor":0,
				"roughnessFactor":0.5
			}
		},
		{
			"doubleSided":true,
			"name":"cafe_yellow",
			"pbrMetallicRoughness":{
				"baseColorFactor":[
					0.9764706492424011,
					0.8509805202484131,
					0.08235295116901398,
					1
				],
				"metallicFactor":0,
				"roughnessFactor":0.09002319723367691
			}
		}
	],
	"meshes":[
		{
			"name":"filtro.001",
			"primitives":[
				{
					"attributes":{
						"POSITION":0,
						"NORMAL":1
					},
					"indices":2,
					"material":0
				},
				{
					"attributes":{
						"POSITION":3,
						"NORMAL":4
					},
					"indices":5,
					"material":1
				}
			]
		},
		{
			"name":"partes.001",
			"primitives":[
				{
					"attributes":{
						"POSITION":6,
						"TEXCOORD_0":7,
						"NORMAL":8
					},
					"indices":9,
					"material":2
				},
				{
					"attributes":{
						"POSITION":10,
						"TEXCOORD_0":11,
						"NORMAL":12
					},
					"indices":13,
					"material":1
				},
				{
					"attributes":{
						"POSITION":14,
						"TEXCOORD_0":15,
						"NORMAL":16
					},
					"indices":17,
					"material":3
				}
			]
		},
		{
			"name":"plastico.001",
			"primitives":[
				{
					"attributes":{
						"POSITION":18,
						"NORMAL":19
					},
					"indices":20,
					"material":1
				},
				{
					"attributes":{
						"POSITION":21,
						"NORMAL":22
					},
					"indices":23,
					"material":4
				},
				{
					"attributes":{
						"POSITION":24,
						"NORMAL":25
					},
					"indices":26,
					"material":5
				},
				{
					"attributes":{
						"POSITION":27,
						"NORMAL":28
					},
					"indices":29,
					"material":6
				},
				{
					"attributes":{
						"POSITION":30,
						"NORMAL":31
					},
					"indices":29,
					"material":7
				},
				{
					"attributes":{
						"POSITION":32,
						"NORMAL":33
					},
					"indices":34,
					"material":8
				}
			]
		},
		{
			"name":"fracis_x1.001",
			"primitives":[
				{
					"attributes":{
						"POSITION":35,
						"NORMAL":36
					},
					"indices":37,
					"material":9
				}
			]
		}
	],
	"accessors":[
		{
			"bufferView":0,
			"componentType":5126,
			"count":2488,
			"max":[
				-1.958228588104248,
				40.05669403076172,
				17.570650100708008
			],
			"min":[
				-12.78612232208252,
				6.110856056213379,
				9.17420768737793
			],
			"type":"VEC3"
		},
		{
			"bufferView":1,
			"componentType":5126,
			"count":2488,
			"type":"VEC3"
		},
		{
			"bufferView":2,
			"componentType":5123,
			"count":4656,
			"type":"SCALAR"
		},
		{
			"bufferView":3,
			"componentType":5126,
			"count":1095,
			"max":[
				-2.369201183319092,
				39.83900451660156,
				17.59354019165039
			],
			"min":[
				-12.375153541564941,
				9.711386680603027,
				9.584694862365723
			],
			"type":"VEC3"
		},
		{
			"bufferView":4,
			"componentType":5126,
			"count":1095,
			"type":"VEC3"
		},
		{
			"bufferView":5,
			"componentType":5123,
			"count":1806,
			"type":"SCALAR"
		},
		{
			"bufferView":6,
			"componentType":5126,
			"count":32185,
			"max":[
				0.14690956473350525,
				0.12530775368213654,
				0.15483297407627106
			],
			"min":[
				-0.1269814372062683,
				-0.22307750582695007,
				-0.11436998844146729
			],
			"type":"VEC3"
		},
		{
			"bufferView":7,
			"componentType":5126,
			"count":32185,
			"type":"VEC2"
		},
		{
			"bufferView":8,
			"componentType":5126,
			"count":32185,
			"type":"VEC3"
		},
		{
			"bufferView":9,
			"componentType":5123,
			"count":43413,
			"type":"SCALAR"
		},
		{
			"bufferView":10,
			"componentType":5126,
			"count":343,
			"max":[
				0.14690956473350525,
				0.03347611427307129,
				0.1317581832408905
			],
			"min":[
				-0.020463384687900543,
				-0.12021873891353607,
				0.08240620791912079
			],
			"type":"VEC3"
		},
		{
			"bufferView":11,
			"componentType":5126,
			"count":343,
			"type":"VEC2"
		},
		{
			"bufferView":12,
			"componentType":5126,
			"count":343,
			"type":"VEC3"
		},
		{
			"bufferView":13,
			"componentType":5123,
			"count":363,
			"type":"SCALAR"
		},
		{
			"bufferView":14,
			"componentType":5126,
			"count":2307,
			"max":[
				-0.053329892456531525,
				0.05242916941642761,
				0.13445651531219482
			],
			"min":[
				-0.06426527351140976,
				0.007404416799545288,
				0.12939584255218506
			],
			"type":"VEC3"
		},
		{
			"bufferView":15,
			"componentType":5126,
			"count":2307,
			"type":"VEC2"
		},
		{
			"bufferView":16,
			"componentType":5126,
			"count":2307,
			"type":"VEC3"
		},
		{
			"bufferView":17,
			"componentType":5123,
			"count":3444,
			"type":"SCALAR"
		},
		{
			"bufferView":18,
			"componentType":5126,
			"count":3857,
			"max":[
				41.06915283203125,
				39.424922943115234,
				32.08140182495117
			],
			"min":[
				10.53150463104248,
				-40.4707145690918,
				-3.6981396675109863
			],
			"type":"VEC3"
		},
		{
			"bufferView":19,
			"componentType":5126,
			"count":3857,
			"type":"VEC3"
		},
		{
			"bufferView":20,
			"componentType":5123,
			"count":6276,
			"type":"SCALAR"
		},
		{
			"bufferView":21,
			"componentType":5126,
			"count":66,
			"max":[
				19.980754852294922,
				14.48619270324707,
				40.07155990600586
			],
			"min":[
				2.6472578048706055,
				-2.8809585571289062,
				38.55649948120117
			],
			"type":"VEC3"
		},
		{
			"bufferView":22,
			"componentType":5126,
			"count":66,
			"type":"VEC3"
		},
		{
			"bufferView":23,
			"componentType":5123,
			"count":210,
			"type":"SCALAR"
		},
		{
			"bufferView":24,
			"componentType":5126,
			"count":24,
			"max":[
				18.976327896118164,
				13.728212356567383,
				39.52867889404297
			],
			"min":[
				5.297813415527344,
				6.834028244018555,
				38.62158203125
			],
			"type":"VEC3"
		},
		{
			"bufferView":25,
			"componentType":5126,
			"count":24,
			"type":"VEC3"
		},
		{
			"bufferView":26,
			"componentType":5123,
			"count":54,
			"type":"SCALAR"
		},
		{
			"bufferView":27,
			"componentType":5126,
			"count":8,
			"max":[
				15.949028968811035,
				2.6562767028808594,
				39.641319274902344
			],
			"min":[
				11.568849563598633,
				-2.2926368713378906,
				39.242210388183594
			],
			"type":"VEC3"
		},
		{
			"bufferView":28,
			"componentType":5126,
			"count":8,
			"type":"VEC3"
		},
		{
			"bufferView":29,
			"componentType":5123,
			"count":18,
			"type":"SCALAR"
		},
		{
			"bufferView":30,
			"componentType":5126,
			"count":8,
			"max":[
				18.73072052001953,
				4.513332366943359,
				39.24502944946289
			],
			"min":[
				13.941934585571289,
				-0.7556838989257812,
				38.86876678466797
			],
			"type":"VEC3"
		},
		{
			"bufferView":31,
			"componentType":5126,
			"count":8,
			"type":"VEC3"
		},
		{
			"bufferView":32,
			"componentType":5126,
			"count":8,
			"max":[
				19.200599670410156,
				7.610574722290039,
				39.05854797363281
			],
			"min":[
				15.330995559692383,
				2.9632186889648438,
				38.64686584472656
			],
			"type":"VEC3"
		},
		{
			"bufferView":33,
			"componentType":5126,
			"count":8,
			"type":"VEC3"
		},
		{
			"bufferView":34,
			"componentType":5123,
			"count":18,
			"type":"SCALAR"
		},
		{
			"bufferView":35,
			"componentType":5126,
			"count":9953,
			"max":[
				0.13870728015899658,
				0.0930107831954956,
				0.13766507804393768
			],
			"min":[
				-0.14005213975906372,
				-0.23492297530174255,
				-0.11877431720495224
			],
			"type":"VEC3"
		},
		{
			"bufferView":36,
			"componentType":5126,
			"count":9953,
			"type":"VEC3"
		},
		{
			"bufferView":37,
			"componentType":5123,
			"count":17217,
			"type":"SCALAR"
		}
	],
	"bufferViews":[
		{
			"buffer":0,
			"byteLength":29856,
			"byteOffset":0,
			"target":34962
		},
		{
			"buffer":0,
			"byteLength":29856,
			"byteOffset":29856,
			"target":34962
		},
		{
			"buffer":0,
			"byteLength":9312,
			"byteOffset":59712,
			"target":34963
		},
		{
			"buffer":0,
			"byteLength":13140,
			"byteOffset":69024,
			"target":34962
		},
		{
			"buffer":0,
			"byteLength":13140,
			"byteOffset":82164,
			"target":34962
		},
		{
			"buffer":0,
			"byteLength":3612,
			"byteOffset":95304,
			"target":34963
		},
		{
			"buffer":0,
			"byteLength":386220,
			"byteOffset":98916,
			"target":34962
		},
		{
			"buffer":0,
			"byteLength":257480,
			"byteOffset":485136,
			"target":34962
		},
		{
			"buffer":0,
			"byteLength":386220,
			"byteOffset":742616,
			"target":34962
		},
		{
			"buffer":0,
			"byteLength":86826,
			"byteOffset":1128836,
			"target":34963
		},
		{
			"buffer":0,
			"byteLength":4116,
			"byteOffset":1215664,
			"target":34962
		},
		{
			"buffer":0,
			"byteLength":2744,
			"byteOffset":1219780,
			"target":34962
		},
		{
			"buffer":0,
			"byteLength":4116,
			"byteOffset":1222524,
			"target":34962
		},
		{
			"buffer":0,
			"byteLength":726,
			"byteOffset":1226640,
			"target":34963
		},
		{
			"buffer":0,
			"byteLength":27684,
			"byteOffset":1227368,
			"target":34962
		},
		{
			"buffer":0,
			"byteLength":18456,
			"byteOffset":1255052,
			"target":34962
		},
		{
			"buffer":0,
			"byteLength":27684,
			"byteOffset":1273508,
			"target":34962
		},
		{
			"buffer":0,
			"byteLength":6888,
			"byteOffset":1301192,
			"target":34963
		},
		{
			"buffer":0,
			"byteLength":46284,
			"byteOffset":1308080,
			"target":34962
		},
		{
			"buffer":0,
			"byteLength":46284,
			"byteOffset":1354364,
			"target":34962
		},
		{
			"buffer":0,
			"byteLength":12552,
			"byteOffset":1400648,
			"target":34963
		},
		{
			"buffer":0,
			"byteLength":792,
			"byteOffset":1413200,
			"target":34962
		},
		{
			"buffer":0,
			"byteLength":792,
			"byteOffset":1413992,
			"target":34962
		},
		{
			"buffer":0,
			"byteLength":420,
			"byteOffset":1414784,
			"target":34963
		},
		{
			"buffer":0,
			"byteLength":288,
			"byteOffset":1415204,
			"target":34962
		},
		{
			"buffer":0,
			"byteLength":288,
			"byteOffset":1415492,
			"target":34962
		},
		{
			"buffer":0,
			"byteLength":108,
			"byteOffset":1415780,
			"target":34963
		},
		{
			"buffer":0,
			"byteLength":96,
			"byteOffset":1415888,
			"target":34962
		},
		{
			"buffer":0,
			"byteLength":96,
			"byteOffset":1415984,
			"target":34962
		},
		{
			"buffer":0,
			"byteLength":36,
			"byteOffset":1416080,
			"target":34963
		},
		{
			"buffer":0,
			"byteLength":96,
			"byteOffset":1416116,
			"target":34962
		},
		{
			"buffer":0,
			"byteLength":96,
			"byteOffset":1416212,
			"target":34962
		},
		{
			"buffer":0,
			"byteLength":96,
			"byteOffset":1416308,
			"target":34962
		},
		{
			"buffer":0,
			"byteLength":96,
			"byteOffset":1416404,
			"target":34962
		},
		{
			"buffer":0,
			"byteLength":36,
			"byteOffset":1416500,
			"target":34963
		},
		{
			"buffer":0,
			"byteLength":119436,
			"byteOffset":1416536,
			"target":34962
		},
		{
			"buffer":0,
			"byteLength":119436,
			"byteOffset":1535972,
			"target":34962
		},
		{
			"buffer":0,
			"byteLength":34434,
			"byteOffset":1655408,
			"target":34963
		}
	],
	"buffers":[
		{
			"byteLength":1689844,
			"uri":"data:application/octet-stream;base64,"
		}
	]
}
